<mxfile host="app.diagrams.net" modified="2023-12-03T23:26:57.103Z" agent="Mozilla/5.0 (Windows NT 10.0; Win64; x64) AppleWebKit/537.36 (KHTML, like Gecko) Chrome/119.0.0.0 Safari/537.36 Edg/119.0.0.0" etag="vQC0899NS0HZLq4k7Qyj" version="22.1.5" type="device" pages="2">
  <diagram name="Страница — 1" id="o3sYmgAIau1fM3dsohi6">
    <mxGraphModel dx="2953" dy="1527" grid="1" gridSize="10" guides="1" tooltips="1" connect="1" arrows="1" fold="1" page="1" pageScale="1" pageWidth="3300" pageHeight="2339" math="0" shadow="0">
      <root>
        <mxCell id="0" />
        <mxCell id="1" parent="0" />
        <mxCell id="hRrDJk90OYjO8OlJONK0-4" value="" style="shape=image;imageAspect=0;aspect=fixed;verticalLabelPosition=bottom;verticalAlign=top;image=data:image/png,iVBORw0KGgoAAAANSUhEUgAAA48AAALnCAYAAAApuXKMAAAAAXNSR0IArs4c6QAACjF0RVh0bXhmaWxlACUzQ214ZmlsZSUyMGhvc3QlM0QlMjJhcHAuZGlhZ3JhbXMubmV0JTIyJTIwbW9kaWZpZWQlM0QlMjIyMDIzLTEyLTAzVDIzJTNBMjUlM0EwNy4xNzhaJTIyJTIwYWdlbnQlM0QlMjJNb3ppbGxhJTJGNS4wJTIwKFdpbmRvd3MlMjBOVCUyMDEwLjAlM0IlMjBXaW42NCUzQiUyMHg2NCklMjBBcHBsZVdlYktpdCUyRjUzNy4zNiUyMChLSFRNTCUyQyUyMGxpa2UlMjBHZWNrbyklMjBDaHJvbWUlMkYxMTkuMC4wLjAlMjBTYWZhcmklMkY1MzcuMzYlMjBFZGclMkYxMTkuMC4wLjAlMjIlMjBldGFnJTNEJTIyNGYyMDY5eFZWaEFDWDhHQjYyOTIlMjIlMjB2ZXJzaW9uJTNEJTIyMjIuMS41JTIyJTIwdHlwZSUzRCUyMmRldmljZSUyMiUyMHBhZ2VzJTNEJTIyMiUyMiUzRSUzQ2RpYWdyYW0lMjBpZCUzRCUyMlkweTNjS3YtNEEyYUlNSElhMGtpJTIyJTIwbmFtZSUzRCUyMlBhZ2UtMSUyMiUzRTdadGJsNkk0RUlCJTJGRFklMkZkaHdUazhnaUszYjA3Nmg2Ym50bFhSdExLV1FRWDQyanZyOThRRWdTVG1XVm1pSTcyJTJCb0N4Q0xldktrVlZVbXJHY0gxNEtLTE5hcExIS05XZ0hoODBZNlJCQ0UzYkpGJTJCbDVLMlNBTmZVSzhteVNHSW1Pd3FlazM4UUUlMkZKdXV5UkcyMVpIbk9jcFRqWnQ0U0xQTXJUQUxWbFVGUG0lMkIzZTAxVDl0WDNVUkxKQWllRjFFcVNqOGxNVjVWVW1lZ0glMkJXUEtGbXUlMkJKV0J6dmFzSTk2WkNiYXJLTTczRFpFUmFNYXd5SE5jdGRhSElVcExlcHhMZGR6NEszdnJHeXRRaHJzY0FLc0R2a1RwamowYnV5JTJGOHhoJTJCMnlIZFpqTXIlMkJ1bWI0JTJCMVdDMGZNbVdwUjc5MFMlMkZSTGJDNjVUOEFxUXBYcCUyRmQwaGRVWUhSb2lOajlQS0I4alhEeFJycXd2WGNEVG91Wng1MWhNY0glMkJDTnZsdHJCcWdMWU5Kb3lZZ3BmMTJZOE1TSU5oa0NNeGJncEpiWG8lMkZnOFM4QWlUUU9TY1JaOUF6a2kwdThyJTJGUU1FJTJGemdraGk5QnJ0VW5MRCUyRm11ZVllWUFBVHluTlRuSzBGa0N1cGZuZ0h6cFhxZ1pub0NSUEJYJTJCRnFzc3oxQUpLa25URTFHVUpzdU0lMkZGd1FWb2pJJTJGWkpSUXR5NHgzYXNremd1THlOVlRsdDlGOU9ESmRGREgyN09zYSUyRllnazNZZ1p4Q0UzWUVkdDVMJTJCRGliVSUyRnZWTllMTG8xdSUyRjJ0b2FJZVEwSllCdUF5cUhkR3RUaVVPM0htdFhwM0tyRXhJa0ZnWDZ1U0N0SmFZb3JiOTNaYWpnUCUyQmFZQmxtUCUyQlhhVFlHTDR1TVExaVRJU2lxeEwwSFZQQmVNclJhJTJGNDF4dGRuV3dFeUd6RTdNTkVYTUZFUmw0WVZBWUN3VDBBOSUyQlRiZURmYXFLRiUyQlV4c0FxTkdHcXd2YSUyQkdNJTJCJTJCeTBZaHNjUmV4eG0lMkJ2JTJGajZydkdGWkJvMGxiMDJuS0JvTWw1OEpGcTBZcldKWUhzODNaREgxVSUyRkZVSHolMkZRMDd3NzBmbktyTDVxTFcwRlBrQ04yJTJCVTh5dWNVWlRWeHF4UGZycENTdm80czNnUUNUS1pUOUZ0TzhNOVp5Um0wak9FSTFSR2JtJTJCRTluTGtwUDRYV1hrcmpuZkZjalY2ZnM1eUlucDd2V1FzMDdmSFRJM3Awdkk5WkptdVdLSyUyQm1rMiUyRiUyRjFwJTJCbkFlZ2lldjlsNU1FWFFnQ2h4VnRpam1yYU81Tnc1dkNLZmtiYUlPcDVqanpZUGhiRElKcHFOZ2RFTlFaUUclMkJLcWkxNTJqbWFpJTJGJTJCaDZlaEZ6N05wcmREVmZZU1VraFZ6SnV1RmFYZFpTYkJsS1F6JTJGWUM4VkQ1ekJwQXk1NmtPNUtYU21ET0FsRGxNZFNBdmxkV29CeW4xa2VwQWlrbk9QUEJHd1Z6QWViTnJVbDE4cTJ4RnFoJTJGJTJCWXFwRTU4emZEWDBvTGdoQ3lWeWRPZ1dJQVMxZmROcHVvcXlsQlQ3dlhXSzQyMUlPMWRMRzVxQTFWNmI0V3BXbjgxT1IyNmpPeGhleHJpUWIlMkZ2SEFvNWRzdUo2aGJXaG5PSnVHd1olMkJLbHMxJTJGeVJudFRrcXdaVkYwTHlxUVJORjA2WWhIVGdyTkdBSnhVbnRNUHoxbEtGMHFhcVRycFQyWjl3VUNhOVZNZ2YzZlNLRkNqeUZHaHRQWktMaU9LaHZ6akdhdHFzaW1UdnFiR25pWiUyQkZjUlV2YWtnQzVqd0hKVjhiJTJGRTdMdXAxcWtZUmh0bzElMkJxOWZ0NkE0cHg4JTJCQlIlMkJlR2MlMkJ4WUNYOUNuaUxQNTNSJTJCbndLMUU2TFlFeGFVR2FRWXZRUnJ3Z2pVZ3NYcUpHMm1PdFdTWkRneUNUMTdUVjlXMVZyUnNOa1h6YXh4ODBUdW93Q2F5TDVPcERUTjZtaFhHd0tmU1BseTklMkZqdmxwcXdJN3NnV04yeGcxenVtemR2T1pPJTJCVWp0MnZHOEpoZWNsOGltYmt5WkxVOFAxQWFRbjRlJTJGOWhBOXpYJTJCSDJJRSUyRndJJTNEJTNDJTJGZGlhZ3JhbSUzRSUzQ2RpYWdyYW0lMjBpZCUzRCUyMnN0bWRoSGdsZV9zTDRIYWpKQmpIJTIyJTIwbmFtZSUzRCUyMiVEMCVBMSVEMSU4MiVEMSU4MCVEMCVCMCVEMCVCRCVEMCVCOCVEMSU4NiVEMCVCMCUyMCVFMiU4MCU5NCUyMDIlMjIlM0VuWkt4RG9Jd0VJYWZwbnZ0RWFLckZYVnhZbkJ1YUlVbWhTT2xCdlRwQlF0aXcwQTBhZExrJTJCNyUyRmNYUzhsd012dVpFVmRYRkFxUXhpVkhZRURZV3dUczZpJTJGQnZMd1pCdFJEM0tyNVNqTklOVlBOY0pKdTJ1cG1rQjBpTWJwT29RWlZwWEtYTUNFdGRpRzJnMU4yTFVXdVZxQU5CTm1TYTlhdXNKVEFFcm40S3gwWG95dCUyQjJqbmsxSk05cWcyaFpEWWZpRklDSXNKZzA0UTJKT0JoUWU0UlhTcjJpU1hIVmRtMlA2MFdOJTJGMyUyQkglMkJCeiUyQk90cXR4dk5ZSDMxc3I0YnlmNE9aQzhBQSUzRCUzRCUzQyUyRmRpYWdyYW0lM0UlM0MlMkZteGZpbGUlM0XkpgGbAAAgAElEQVR4Xuzde6w1VX0/4DFtrFqEljYKARoLbSVEoUpMCqW2KaK9xAahELwhoAVEJFiEIAi24IVqqQlSLl4QARWlKo1JbUWqtghWvCEJVSPEVhC0DQpCLzbm/eU7ydq/deadffY+5521z157nvMPL+fsPWvWs9bs2Z9Za9Y8pvFDgAABAgQIECBAgAABAgRmCDyGEAECBAgQIECAAAECBAgQmCUQ4XHbrBf5OwECBAgQIECAAAECBAiMW6ANj9u2yY+b7QaPecxjAnCzb/c+AgQITBWIz5dF/PgMW4SyMrZKwHl6q+TrLHds/WVs9a2zVy7PXkd/ER53sD0cdDsI6O0ECAiP+gCBggLO0wVxV3DTY+svY6vvCnbZhVZJeByA20E3AKJNECDQK2DkUccgsOMCztM7bjimLYytv4ytvmPqyyXqKjwOoOqgGwDRJggQEB71AQKFBJynC8Gu6GbH1l/GVt8V7bYLq5bwOAC1g24ARJsgQEB41AcIFBJwni4Eu6Kb7esvb3vb25qzzjprTY0PP/zw5uqrr2522WWXNb9/5Stf2TzwwAOTv330ox9tjjzyyF6tj3zkI83dd9+93bbjxSeffHJz+eWXF1fu1re7v29961ubM888c81+rPea73znO219DzzwwDX7H4b33HNPc9FFFzXHHXdcc+ONN25XtzB905ve1P799ttvX/P3ffbZp7n22mub+++/v/WKfx900EHta2677bbmpS99aRP7etNNNzVXXHHFdtt+1rOe1YT3XnvtVdx0lQsQHgdoXSelARBtggAB4VEfIFBIwHm6EOyKbnZaeLz11lvXhMVuSEwhJgJM/ETASeEmUcV74icPhRGqutteJG1e3wiFeTB76KGH2iB38MEHTwJk7O8NN9wwCWLpNbvttltbrxQeH3zwwTUBL4XHvO4R+k477bTmkksumVil95999tnNEUcc0UuRm8ULuvsYv5tnO4t0XpWyhMcBWtJJaQBEmyBAQHjUBwgUEnCeLgS7opudNzz2hZMINeknRtm6I4fLHB77gmIKxOeff35z1VVXtVU74YQTmgsuuGBNMA6L9Ps999yz/XeEyUceeWQSuIcMj/m+xj71he9u++T72A31K9qVi1RLeByAte9Dpu9q1LQrIBsdxu9eiek7GOeZTtCdDjBt+kWXKOrWnQ6w6KkA6UMjn/LQN61igOYttonu1b28oHmmjBTbMRteKoFFLpgTx/bee+89ubqcpgGddNJJa36XXyXuHovdz4K0jZiWlf/k07H6vkzF72LqUUxLuuaaayb71bdPsd3uvq/CZ8RSdcTKd6bvPJ3OyeudC6f1324/7468JK6+96epd+nLa985Nd6fzml9f+9uo/LmWbrdnzc8dj97oh+ceuqpzSmnnNJEgEqflfk0yWUOj32jgN3Gie8n8bncna6bh7ljjjmmDY8x1TXCc0wnjRHEIcNjCrWx7fjJp7CmfTbyWObQEh4HcO1+yMTB1zdlYVZ43OwwfvdgnHc6QR5Cp11t6uOZ9sHXd4VtAN7eTbz2ta9t59PXeuUonWCicvvvv/+aewnmmTJSytV2l09gkeGx+1kSffEtb3lLs++++zaXXnppe19P/sXh4Ycfbo/Do446atKHu/13nilJ3c+U7sW3PBimL+O77rrrmntX8tf03W/jS8Ty9e1F7tF64XG9c+E8X6ajHum4iH/H9LsUFvre3z1G+s6puc0yho1Ftt1WlLXZ8Bjtfdlll00+L6PtDjvssDVTL6e1Z/d+yqh33J83bdrmkC6pvrH/aYRx2n2B08JjHqRTeIzRybg/Me5xjLpcf/317T2P837fnTXIkb67Rtl995763B+yl/z/bfWGx2kflt0ru92bh/ORn74bi6PYdLV5Izcep93tu7I37YrdIkfCuh8y06YsLCI8ThuS704niC98641grvcB0vfBl3+Y3HzzzWtuDE8ffvkV2NQPUjkHHHBAc/HFFzfdq6l5P0l/i6t573nPe5rvfe97kxHQvO91Rxyi/Pjp3qwefSQ+1H/u535u8sU39fETTzxxcvUwAmp+TMS20skh6hofivGhFV+y42pj9/V9ATedYOKKWdQxpoLEB/U8U0bc6F3mw3BZt7rI8Ng97uN4iIsbcXynKUrp8y2uKPddRQ7H/PfznE/yz5S+e3+64TG+3Oy0007tlKj0JSR/zbT7h6bt77K2vf0aTmDe8Dhv/+3uWQoJMVreHb3v3s+VvmTHf6P/biY8zvMlfzi98W1p3vDYPWf3fbftLnqzjBcD8vDY11/zHrDR8BjfgdLnc2xnI+FxvXse07H6yU9+st295z73udst6iM8ljl2Nx0eu6NbqYHSFehZN/9O+4KQr07VrfK0K3vxuq3sIPmHzHpTFhYRHuedTtANjzs68pg+DI899tg1Nz6ndo4rsfGBFGHp0EMPnQSzaLv4XYS4OInm/SIFs7QyVl5GvCdNpeu65qMWsY38xu+uT/5FOL9q1g2P+RS6FB7f/OY3N+ecc04bGPfbb781YTN/fV94zMvNr0zOe5W7zMeBrS6jwCLDY/75lffpmDYax2gcu7EoQTqO07+7V8bjOEtXmu+9996ZiyGkYzu+dOeLMKT26AuPF154YXPeeedNQm1+4adv4YRlbFv7tDiBecNj91w4z2dynIPSF+7o7/nI07T35+ei+IKcgmSfyDKGjcW13NaUNG94zL9/xAXp7nervgv6y9ieqb7TvgvmfTxaZN57HtNFx3QcxCyWuPA378jjeuGxe1G/L/RuZTbYmp67mFI3HR5ndf53vvOd664c1RceZzXytCt7feFxkTfF5h8y601ZGCo8dofxo/7pyta8V4TiA667nXmXhO4b7Z12v2Tf/qQPp/gCuvvuu6/5Yrleu6VRgwio3WkV3ftG0/z67gfhZsJjTLn42Mc+1h6RERRTeIyrXHGDdnwI5l+6u6/vhsf8tfG32Ke4Wh3bcTV5MR98NZWyyPCYX0A55JBD1oywRx+NiyXpBL3zzjtPgmQ3POb9OL5Mx/HYvecxny2Qf6b0zRrpC48xWh9ToNIiCfElI8JnXPjphtp8+/Pe211TH7GvswU2cs9jfi6c557d/DO8+/k+b3jsriOQz8LpO+cucnbVbN3Ve8W84bF7sTpdNEszhPrC2Kzvz93HfixCN6/vtFtn8pke89we1Q2YaVS2+11znlsbugbdAav4+2ZyxSJsV7GMTYfHtKDHtBPxZkYe8y8u3efJrHdlry88LrKx8oNuvSkLQ4XH9aabbiQ8pu3Mc2U195xnik1+Isz7SOo33WmradpmHh5j5KP7HKB4X4TH/Mpu7Fs6eceX2+6Vv/yLZ9en+//daavxpTduwk7/TeEx/v/pT3/6ZI59+sLQ9/pueOz7MpK+CPSN0iyyLytr+QQWHR7TsRQjjRH44rM4n2Ydx0Pc/xg/00Yeu+ExvyKcj0qmL1hx3H3pS19q74mJEf3uDJRp4TEPsGm6YAqP+bLyqVXX+3xcvpa3R0MKzDPy2HcunOf82Bfu0sWRae/PvyNtZORxI7OEhvQb27amhcf1nvM47btRN2hNC4999zwu6mJXt77dRfv6Bhe6r8kvCPYNBKy3qNS0R3X0DZbEOSjdjpTf59i3fautljlyNx0eY3e695blnXzaPY/p/rdp4TL/kpBXeb0re8sSHvvCYV8YSqNiqX59HyQbuRKT38ez2Xseux9u63W39cJj94vhtC9rqZ1jdCP/0Mjrfcstt6wZvU71zEc/0pfPzY48pgsWediND8A0bTWu/sa9lXE1Ma2gFu+J8JqCYvoiHX/ve/08z3iaNeUuv3jinscyH4bLutVFh8foaxHgYnn1F7zgBe1iDfFZH19w4/7H+H26uLfZex7zq/VxlT3/TJl2pT7dR9YdnU+fOXvsscfkOWTTzi/C47L28vL7NU94TKMX+dTpWeFxWuBMs2OmXRDM+/w8F2Rj39JUv3QBMs5Vi1hMpXzrLF8Jff1l+fZyuD0aW32HkxvnlnYoPHbJ8g/AzYw8rndFbb0re8sSHvuuqHfr1P3SNO0ksNnw2Hfy616N6Qu5G7maOW94TKMCsU9vetObmnPPPXeyCl0eHvP7F/N+k099Tqs6HnjggZMFBtKXyW5g7k4jWe+ex74+nE99u/POO9uRx/z+rxQeIzTGPsZPGu3oe30eHtcbfU7T77r3aU67Wlf6Iyvta/fKX9/qb9197F5Yyvc1LjJFf4hRq+6251l+fr2LVqmceaetT3vdrOnD3SuuuUnull9Q644451dp8791p6MtOjymUfQIifmqkbHC8aOPPtqO/Kc+3Td1qDvlaZ7Psu5nSvdzcdrIYz5yGReAkmnar/R5kZ8jImT2rcpX+niy/a0VmDc8bvSex1lT5bq3ZoRC9xjZaHhM5/mtfKj81rZm+dLHFqbGVt/yPWi1S+gNj+sNN8dUoO5iIokov6o75D2Ps67sxReIWfdLlmzGdNBtZMpCPtLV92V8ni9cqU59V/9nTSfoW201P6HFtqct17zeiS7/Yh9B4IwzzmhPlOn+pDQtI32pvuuuu9py4gbqeGZj/sU5/xIevz/++OObWFUrvvjFTz6lddZqq+nq7KyRh2kjgPl9LHl4jFAb8/qjXjEamabKde97yY+R7j0R8bful+V5poyU7NPTLshMu9iRXON9eeBIdZs2JWXWSmp9dcwXG+q76JH6zYMPPtj73Kc8YMZx0H1dqmP3URD5+/Jnd+UXjdIFk9QP0rGSj1x3V+PtLrbU/TK66PA47Ytp38WxeG03zPc957FvIYN8tkOMdMZPvohCmr0Sn4/5CpZ9wb4vxMb2uhcda3sWbOljfEzbnzc8dsNd/H/fPbtxfov+mn/u557pImbc6hD/zu/5nfc5j2mqYN85d1qfH1Oblqzr2MLU2Opbsu+MYdu94bFvpKN7paz7Baf7ns2MPHZH5fJw1L3C1jePuS8QLaIRHXSbV541wrP5LXvnjgrMM0qabuyPYzfukesuU7/Z8DjvyGE36MTFiPiily5apJXeuhYpIHZflz7n8oses6YJ504RnPJFAmYFrr778rrHxFaExx3tO95PYNkEnKeXrUWWe3/G1l/GVt/l7n3Lv3e94bHvanLfdLLufY35DbXT7nlMI04xMrnejceJbtZU1rSwQprWmEYyNvLlc0ebyUG3eUHhcfN2pd85LTx222zWYlYbGUXfTJ2mXZXvW0q8u/3NTlvNt5PXL36fj9hPu19qvZkSyzDyuJl28B4CyyzgPL3MrbN8+za2/jK2+i5fj6trj6aGx7qqsbV766DbWn+llxGYNzzOWsxqvfDYvedxoyvLTRvZm/fi0Y6Gx75HweTTkqeFx/WmoYVJPpXdyGOZ/m2r4xJwnh5Xe+9obcfWX8ZW3x3tH2N/v/A4QA9w0A2AaBNLJzAtPHYD26zFrEqNPHan0ueAiwiPfdP7u6OyfXWfNj0/7X/XXXhcukPDDlUo4DxdYaNt4S6Prb+Mrb5b2LVWomjhcYBmdNANgGgTSycwzz2PcY9hdzGUeQLUji5wNevRMqXD47TFKrrl9i2mkz9oua/Ru6OZwuPSHRp2qEIB5+kKG20Ld3ls/WVs9d3CrrUSRQuPAzSjg24ARJtYOoG+gNddbXXWMvWxyu3QI4/TpqouauRxvfuw+x7NE/sVqzJOW6W4Gzi7XsLj0h0adqhCAefpChttC3d5bP1lbPXdwq61EkULjwM0Yzro0iME0uJC8UiJWMAnfXlMRc27SMy0B3B3dzl/Blr+t2lf7OdZSGQzLPl+TNunfLvpi3asjhnPwsofqjztMSHrjdSkZyzmz1VMCzeNZYn+PIiEVSwjH33w9NNPb6atPDqtrfNHpeSvSffjzbuYVd/o5LRtRzmx/e6qpXn5fdNku/dK9o089vXJee957Lr2Ld2fXPK6pf1KC3p17/FM/bL7DEj3PG7mE8h7CEwX8OVY79iIwNj6y9jqu5G+4LXbCwiPA/SKvvAYjyyYNtqwquGx+wV/7733bs4888ypwnl4TM9hjBfP65M2nLbzox/9qHne8543KTM9a/HrX/96c/TRR6+7LwN0g6XYxLTw+PrXv3675y8uxQ7biZkCRh5nEnkBgZkCvhzPJPKCTGBs/WVs9dXZd0xAeNwxv/bd6aCL6XTxE6NoX/3qV9tpan1T1fruCUsjGekB2zFCEc+tjJ/0CJR8dCJ/EPeOjDx2H/Cdj3jkIzz5PsSo4AEHHNBcfPHFTf4Il7Qfsc/pMSwxsnLiiSc2xx13XHPjjTe29UmjMfHv+H0+8vjGN76xefWrX91E/aOOT33qU5v9999/EvzyB8R3w2PsUzyI+dJLL23i+YPhFSNv8ZO20R3x6tZrp512muxnbpE/eiavc3eU6ZFHHpmM8E1rr+gn1157bRNlXXfddW09Y3QwzGL/81HSeG3qB123uHfuiiuumPSRWOUzOcc+/uVf/mXbD1/zmtc0b3/729v/pucyDtDtbWJBAosKjwuqjmIIECBQhcC2bduq2M8hdlJ4HEJxPNsQHgdo6/UOulnhMYqPcHDUUUe1ASlfiTGehXnPPfe0I5jd+8/y10Xw6Bvlm2faar6dm2++uQ0wEWzuv//+9r8x9TZ+Tj311OaUU05p/x1hLx4IH/uVl5HvR3cKa7yvW49DDz10u/B41VVXNffee+9kCmuEyL79yKempgD83Oc+t4mwlaZnpqAZhuGTQmx6MHv3+XxRr5NOOmm7dgiX/PELeZvm/47yrrzyynZ/99xzz7Zd03NHu87xtwinyeC+++5r/z/qm8oKh7QYzX777ddaRWBMITFMo33ydotyS01LHuBQsYlNCCzipL6IMjZRdW8hMJiAPj4Y5Sg2NLb+Mrb6jqITF6yk8DgA7qzwmEaH8qLSyGEelPbaa681i4vccsstk/DYXSQkH71885vfPDU8phHAvOw0cpYCSYSmmDaa38OW37eZj1Z1F/PIp0lec801k/2YNhqaT1WdJzzGfqcAFVYxkphGFlOd8m3GdOEUFFPgzfcrd+hO8cxXDU2jgxHOuqN16V7Uc845Z01Qy7cX4bv7vL90H2ceEKPNc6u8Xa+//vrm1ltvbQNi7EPap0suuaQ1SSE4L1d4HOCAXrJNLOKkvogylozV7oxMQB8fWYPvYHXH1l/GVt8d7B6jf7vwOEAXmBUe06hbKioPCN0gkQeBbnhM0xfTdlLAmxaOZo08dkfHYrt5kMmnauYLe+SL2cwTHruLgUQ5+ajbrAVzYp9ipDOmdMZP9z7KPDzG3yNAHnvssZPRyzxc59NA47XJMP6d1ysPj/G3fNpt/H9Md40y8sDZDY/T2isf1Y1QuF547Ib/uOgQYfLcc89tR4Aj9AuPAxzES7yJRZzUF1HGEhPbtREI6OMjaOQBqzi2/jK2+g7YVUa5KeFxgGbfkfC4kZHHNH2zOxK22Xse1xt5zANad1XUPDDlI5F9I4/dqaIbHXmMkbkIch/72Mfaloqps/mU1fhdvs0IV7F/EQofffTRyaJFMRp5zDHHrJlK2h15nBYeY/pwPgI478jjtPbqjmquFx7TtOW8m3YXGhIeBziIl3gTizipL6KMJSa2ayMQ0MdH0MgDVnFs/WVs9R2wq4xyU8LjAM2+I+Exit/MPY/5Q9LXm7aah54oq/togmn3POajnmnV0vyex3Rv4Kx7HrvhMY38bWTkMd3vuccee0ymcE4LU2kqbCzOkxa8SeGsGx7zexTXG3nMw2N65MKBBx643Wq6693zmLdXfh/neiOP+T2PEZhTW6Vpq0YeBzh4K9jEIk7qiyijAmq7uMIC+vgKN26Bqo2tv4ytvgW6zKg2KTwO0Nw7Eh7TfY7d1VbTiFsEy77VVvtWOe1O55w1bTUCybTVVru/705bTauSTlv1NX++YuxrvnJskOcL2HSnraZAHf+NANi9L7DbZN2RuDyodd+bT8V9wxve0Nxxxx1rVnuNBXuSfRo5zJ/RF/U9/vjjm09+8pNtkM3/dsYZZ7TbSwv25NN18/aad+Qx7wNR52S98847TxYa6k5bTaPJfc+8HKCr28QWCCzipL6IMraATpEEJgL6uM6wEYGx9Zex1XcjfcFrtxcQHgfoFWM66Db6DMYBeLcbLR1imyW20V3UqEQZtjk+gUV8viyijPG1nBovk4A+vkytsfz7Mrb+Mrb6Ln8PXO49FB4HaJ8xHXSLDo9p9C5Nkx2guQbbRHd0Nh9dHKwQGxq9wCI+X1IZ3eegJvz8mad9C2DF69IMibzB4oJKevxPfq9y/gzZ9Po4fuJxPrGicnombL6t9JxTzyod/SGxKYBFHEeb2jFvWkqBsfWXsdV3KTtdRTslPA7QWA66ARBtggCBXoFFfL50w2N6PmnsUAqLMXU9pkl3H9cTr+k+hzZ+l+6Vjn/vv//+a1ZJ7nv+bbfyfeXoIgQ2K7CI42iz++Z9yycwtv4ytvouX4+ra4+ExwHay0E3AKJNECCwlOExdiq/f/quu+5a84iatNPdVZ8j/MUoYtzTHO9P9xPH64VHnX3RAs7Tixavu7yx9Zex1bfu3rn1ey88DtAGDroBEG2CAIGlDY/5dPXuKsCx030jjxEY4ycW8krPao2RS+FRR98KAefprVCvt8yx9Zex1bfenrkcey48DtAODroBEG2CAIFqwmNaHTrf4bQic/wuf7xP3OsY9z7edNNN7T2NKTxeccUVa+qb31cZfzBt1QExpIDz9JCaq7+tsfWXsdV39Xtw2RoKjwP4OugGQLQJAgSWNjzmKwl3Rx77VhnuW1Sn+1ifqGwKk30VFx4dEEMKOE8Pqbn62xpbfxlbfVe/B5etofA4gK+DbgBEmyBAYGnD46x7HmNa6gMPPNA++zRWQ+27pzG/J9I9jzr7ogWcpxctXnd5Y+svY6tv3b1z6/deeBygDRx0AyDaBAECSxkeN7raaowwHnnkkU2+YmtULA+g8Tcjjzr8IgWcpxepXX9ZY+svY6tv/T10a2sgPA7g76AbANEmCBBYmvB4++23r9mX7nMeTzvttOaSSy5p8mc3Rji84YYbmle84hXNu9/97ibes9dee022k4fQuP9ReNThFyngPL1I7frLGlt/GVt96++hW1sD4XEAfwfdAIg2QYDAlodHTUBgVQWcp1e1ZcvUa2z9ZWz1LdNrxrNV4XGAtnbQDYBoEwQICI/6AIFCAs7ThWBXdLNj6y9jq2/qtl/+8pebF7/4xc3Xv/715h3veEdz6qmnrtujv/rVrzZ/9md/1nzmM59pfvKTnzTPeMYzmle96lXN0Ucf3YThWH6ExwFaeqwH3QB0NkGAwAyBRXy+LKIMDU1gKwX08a3Ur6/ssfWXsdU39ci43SIeM/X4xz++efrTn95ce+21za677trbYWNl8dNPP735v//7v+Y5z3lO89jHPrYNkd///vebN7zhDc0ZZ5wxmgApPA7wmTbWg24AOpsgQEB41AcIFBdwni5OvFIFjK2/jK2+0VkffPDBJp5ZHGEw7s//h3/4h+aaa65pfvd3f3e7vhwB8WUve1nz7W9/u3nXu97VHHLIIe1rvvWtbzXHH39888Mf/rB9b4xEjuFHeByglcd40A3AZhMECMwhsIjPl0WUMUdVvYRAMQF9vBjtSm54bP1lbPWNTvvxj3+8OeGEE5rjjjuuefazn93+OwJijEZ2p6Cm1/b9/brrrmsfT3X++ec3Z5555koeD91KCY8DNPMYD7oB2GyCAIE5BBbx+bKIMuaoqpcQKCagjxejXckNj62/jK2+27Zta4Pe+973vuaqq65q4hFTL3zhC5sf/ehHzQc+8IHm137t19b065iWesEFFzQf+tCH2vsb85877rijvW9y//33b1caf8ITnrCSx0ReKeFxgCYe20E3AJlNECAwp8AiPl8WUcac1fUyAkUE9PEirCu70bH1l7HV95vf/Gbzohe9qHniE5/YfPCDH2x222235sILL2xHD/sWzomRxXjEVNwTmT+iKg6A73znO+2zjeNeyRiF/MVf/MWVPS5SxYTHAZp4bAfdAGQ2QYDAnAKL+HxZRBlzVtfLCBQR0MeLsK7sRsfWX8ZW3yuuuKKdahqjieedd17bjz/72c82xx57bPO0pz1tzcI5MRoZ9zXGSqt94THud4zprPfff/92zzde1QNEeBygZcd20A1AZhMECMwp0L33Ys63eRkBAgQI7IBATG0cy8+Yvsc++uij7f2Nn//859tFbn77t3+7beb0+3/8x39sp7I+//nPb3//0EMPtfdF3nnnnb3hMf39vvvuEx7HcsAMUc8xHXRDeNkGAQLzCyzi82URZcxfY68kMLyAPj686SpvcWz9ZUz1TSOMz3zmM5urr7662WWXXSZd+dJLL21e/epXN694xSuav/7rv24fx2Hkcfsj3cjjAJ9+YzroBuCyCQIENiCwiM+XRZSxgSp7KYHBBfTxwUlXeoNj6y9jqm9a/Ga9Drzvvvs273//+5sImPHjnse1WsLjAB9/6aBLN83efvvta7Z68sknN5dffvnkptru3w8//PDtrn7Ew0jjBtz0Ew8x7VsCOF530UUXtUPl8RPv6W5/n332WTPUPm3baej9xhtv3E6lbx+7L4rtnnXWWb3D+vPWJ5ZIjp+0z3FV6Oyzz25/F4bp57bbbmtvbI6pBfF8nmk/874u9i/msnevQg3QPWyCwA4JLOKkvogydgjBmwnsoIA+voOAI3v72PrLWOobU0tjoZx4XuPv/d7vNY973OO269lf+cpXmn/+539ecz9kfM9+3ete137XPuKII9a8x2qrI/twGKq63fAYYSd1rhTI4kGksRRwhLu+vx988MGTcBgB6oYbbpjMnU7biNWg8gAV+98XHvPtzwp4adt5+fGeCF2nnXZac8kll2y3slSfW2zn1FNPbf8UyxXnQbcbKpq70zMAACAASURBVKeVGe/Nw2OsbBX1jSs+wuNQvdV2ahNYxEl9EWXU5m5/V0tAH1+t9ixdm7H1l7HUNz2T8ZhjjplMS+32pfRMx/322699bMcee+zRfOITn2gX0+l7zmPcNxm/nzbIU7qvbsX2jTwOoL5eeIzNR/jZe++9m+is3fCYAtM999wzGZ2MG3ljBah8OeAY1ez7/UbC43pBsTuK1w2Ps0bw4u+XXXZZEyE5AmAaEdxImSkMx3933333dmWrsJsnPEb5Ufbdd9/dhvTuSGz63b333rvd62Lk0sjjAAeCTRQRWMRJfRFlFMGxUQJzCujjc0J5WSswtv4yhvr++Mc/bl71qlc1119/fft9+yUveUlvb3/wwQfb74n/9E//NHndd7/73fb1saJqrNSaFtn51re+1a7EGiuuRoh8xjOeMYojSHgcoJnXC49pKmuMBs4z8jgtxEwLYRsJjxsZTdzIa1MAjv/GiGOEvcMOO6wdfd3odvqaY1Z4jPdEKD/qqKMm5T/wwAPtFNS77rprMr01vS6NzMZ20+tuvvlm01YHOBZsYniBRZzUF1HG8DK2SGB+AX18fiuvFB5XsQ98+ctfbl784hc3T3rSkyYjitPqGYMgcRvWC1/4wubd735384QnPKH50Ic+1Jx++untW57znOe0i+l85jOfab7//e83cR/lGWec0V50GMOP8DhAK8+65zENZc+6JzJ2Zb0RsDSC2Z0SOuuex3S/Yh6k1rtPMPZjI6EvTVk95ZRT2tHSqEOacjprxHIe/qh3XOnp/uSjifnIab7v8Z70t7gXNFlF/fN9i7+553Ge1vCaRQss4kvvIspYtJvyCOQC+rj+sBGBsfWXMdQ3BcLXvva1k1ukpvWJFDTj7/nCOZ/+9Kebiy++uLnllluan/zkJ+1IY4xmHn300aMJjmEiPG7k02TKa2dNW01vy0chp43KDREep93zuJFAuNHXpimjqa55sNvIvZN9xLNGHruhMJ/i2w2P+SJE8be0ME9MRRAet9efdsEjX0ApnzKcbyH1gTe/+c3tr7v36/a167yHY7fMafcazFPGtAsccaJJ08mn9ct0USPVNV2UyfcvLZiVLsrkx0q+3+nEFq/L37OIk/qsC2Abae9kkNcn6tRdaKC7QFfXMC2ylVvEdlKfTNuM4z+O61mvy6es9/XT9PeTTjppzT3b+UW7vgtZebnTjpf0ObPnnnv2LmrWtwjDvMeC180nsIjjaL498aoaBMbWX8ZW3xr64DLvo/A4QOtsNjxG0d3Fcabd25j/PuZVxz2UMQK5kWmr06a+xrZTwMu//M4b+vq+oKcvXCeeeGL7cNXugjx9ZU5rilnhMb70zTvyOC0guuexX797wSNe1e1Hsy405H009a++7c57KHZHuqeVPy185OWkkLfrrruuebhvCj7dQJLem4+ux+/yPprX7dBDD530/zgWYlGpNELfHSGPe4bjGVPxkx8zizipr/cZttH2nva5lt/vnYzSVPN4T3dhrfj/t7zlLc3P/dzPrVlVufv7CI/zvC4+J9b7TJvWF7rhMb8Q0l3MbFa/7vt7KjcuJHRX8Zv3mPC62QKLOI5m74VX1CIwtv4ytvrW0g+XdT+FxwFaZkfCY1+gm7Xaaj4iEv++9dZb2/v7Hn744d4FefIqTlv5tLuS66xAkLY57ctSvl9xP2H+CI/1Vo/ta45Z4THes5l7HnNn01bnD48pHKRRuVl9pa+P5IEyRibTxZDNHI59x1C6OBHb61ulOA8rcZ9C7E9a5CndC3vAAQc03/ve97YbMe3bx7w+3YsZ+bGQP4x41qrDyXcRJ/VZn2H5Z85m2jt5p4s373znO3tHdfNy0gWdnXbaqXnBC14wCVbRPk9+8pObz33uc22bpWN31uvmCY9xESq2k/eZ9cJj1Cv3SCOL02Z/zPN5mfeRzRwP3tMvsIjjiP3qCIytv4ytvqvTU7emJsLjAO6zvnjNClp9z0dc77mI+XSv/BmO06ZMRfn5tKjutvtGV+ZdbbVvVCl9oYrpeelq+jxlTmuKWeEx3b/YXW01ft+d4pZPXcvtjDzOHx43MxLVbcO++3c3eyj2fSFP248AFj/dKbN5WZudtppvo3uxJB/hnnaMTAsSXd9FnNSHHHmcVt/klT++qDvSlr83hcI8xKeLAnGsR5vm4XHW6+YNjxdeeGFz3nnnTVa8nhUeZz2OKe8n09p8iHvDN3v8jOV9iziOxmI5hnqOrb+Mrb5j6MMl6yg8DqDroBsA0SaWUmCeRZ6m3fOYX5TIw3mMkPc9dmazAN1gmh4bE1NAYwSodHjsXmjpjjROC1N9F0XSRZb8/r9FfL7Muudxvfs2U7ul18y6ELNeeOxbxCqc0uN/IlDGYlzxvK18IawI67NeN+2ex7TfedmxlHua0RF9KI2M97VZX3iM/cx/0j2j02aHCI+bPfrnf98ijqP598Yrl11gbP1lbPVd9v637PsnPA7QQg66ARBtYikF5lnkadY0xqhYfs9urFKWvpjv6BS9/HErsa3u/ZAlF8yJevXdr9YNT33hsbvf3cbP3/NLv/RLzbZt24r2j2kjj31tO6u9d2TksS88XnLJJc0555zT3iua7vc+5JBDtguPs14378hjjGbuvPPO7X2nMcIZYXW98DjrcUzzjDzOMiva+CPZuPP0SBp6oGqOrb+Mrb4DdZPRbkZ4HKDpHXQDINrEUgr0TbPr3pM7K0xExdLoTEwtvOOOO9ov5TuyOMi0+2bnGQXtQm922mrfdPMUKPMFnPKRyPh7hJJp92GmfctNY7GprQqPsT8bbe/1pmamRYE2cs9j3M8dr4/7T6PvXHDBBS1Td+Rx1us2Eh5jynsKdHvsscdkwa9pU+jTQjzueVzKj7F2p5ynl7dtlnHPxtZfxlbfZexzNe2T8DhAaznoBkC0iaUUGGK11VSxtIJp95EMm6n4PCOKsd15XreZ8LheYJ622mqsjjxtf7qjlXngjNVGtzI8buYe175VpPNFreZdbTXdOxqLbsX7+55Zmy92td7rNhoeU/+Jx7GkR6p0289qq5s5erfmPc7TW+Nea6lj6y9jq2+t/XJZ9lt4HKAlHHQDINrEUgpMG0XKR91ix7vP+Yzf5QsSxf+nUcHDDjtszQI2G108Z9p9mH3Peuw+QqPvXst5w2P3nrhYQTj/yUNxPgKa7qmbtd/5cxG3+p7H7mqhm2nv7nMeu+0zz3MeU3hM9wqmR3v0TW/NV5zue920ex5TP81HM7uPlEnb2+xzHmPbsWhZtGuE4O49kZ7zWP7jz3m6vPEqlTC2/jK2+q5SX92KugiPA6g76AZAtAkCBHoFFvH5sogyNC+BrRTQx7dSv76yx9Zfxlbf+nrkcu2x8DhAe0xbbCJtOn922QDFTTaRX33vPltuWjlpelwsLhH36cSIUVwN3+jql2lVyO5jPrqPxkhX8Ies97JtK2/fGJmIkbW777679zl2y7bv9mf5BRZxUl9EGcsvbQ9XWUAfX+XWHb5uY+svY6vv8D1mXFsUHgdo760Kj/muz7vUe98y+vlKmAcddNBcIrGdt7zlLU3cj5Uerh5vnPb7uTZa6YumhceoTtzn5ofAjggs4qS+iDJ2xMB7CeyogD6+o4Ljev/Y+svY6juu3jx8bYXHAUw3Gh7TqF0UnRaAiMcM5L9P9zylJeNjlcrrrruuHdFK9w6lwPjGN76xefWrX93eR5PeF/+Oe2vST7qnpjvyGK+Jv914443tPWovf/nLmy984QtN3D8U+5Q/My9/rELazk477dS84AUvmKycGSNvT37yk5vPfe5zk1CZ3/uU7i/ab7/9JqtOxoIU8dN9LmDf/sfr0vZiWxF2Yx/SQ+Dze5K6TmF48cUXt/WMv1100UWt2bRn2OX3nUV9Uxmf+tSnJvfz3X///RPn2M7+++/f/Pqv/3oTv4+fHVlRdICuaRMrILCIk/oiyliBplCFigX08Yobbwt2fWz9ZWz13YIutVJFCo8DNOdGwmP+XLhDDz10EqDiOWb51NEISPFz4okntq+577772pCXrxgYf0/L1efTVrurCuYrN8ZqhLEIxbRpq7HUfN9+dEfQUniMQBZL6EewihHMNBU2/j9GJCOcRUiLfY8prGkBk/hd1Ct+IqjGfsUCJLFv8ZOWvo9wmO//XXfdNflbWhb/wAMPbMvvvi6m5EZI3H333dvpuSeddFI7Ehj7EM9u65bVXWY/fxZfWsUx6pG3Wyr3nnvuWbMIzADdyiYItAKLOKkvogzNSWArBfTxrdSvr+yx9Zex1be+Hrlceyw8DtAe3fDYXUkvikijW9MeIP6Od7yjef3rX98+wyyfOtpdJj+2lVanzB+Uvd49j3mZs8JjlJ3u24uQdOqpp7YP5+5OZ03bjNdGaEtBMULZscceOwm13Xse0xTPFB7jGXYR6NabOpvvf/f5cNO213XqhtEU9vJyY7QwD7rdFR3zv+VTVUvd0zpA17SJFRBYxEl9EWWsQFOoQsUC+njFjbcFuz62/jK2+m5Bl1qpIoXHAZpzIyOP+ehYmhaajx6mRx6k6ayxezFClz9UfZ7w2F1SPm1vnvAYYS2FwPRQ73zKauxTPv01Rk0jYF5zzTXN3nvv3eShNk27jWmx6SeCdAqPqV7d8Dht/+MRAvGTppB2w2NeTgrt3TCbh71ueMynysb70zTbCJbpsQFhITwOcODYxFwCizipL6KMuSrrRQQKCejjhWBXdLNj6y9jq++KdtuFVUt4HIB6I+Fx2shjmtaZdmfaiFo+Ejlt5LE7VXSjI49p+mkEp7h/sW/Rl+5oYExdveOOO9qR0/hJgfj6669vbr311sk9lN169YXH7gjgRkYe85CdLLuLCa0XHvOAmHeNvoe4p9FLI48DHEQ2MVVgESf1RZShiQlspYA+vpX69ZU9tv4ytvrW1yOXa4+FxwHaYyPhcdo9j32jY7Fr6Z7H+HfcG5jf85eHtHzaah4e08hfev88I4/x2vy+wL4VWLuBNEbs0uhm7GNfeEwP+o57FNcbeczDY3f/573nMX+oeB6yYxrttPDYvecxXnfDDTe092uGqZHHAQ4Wm9iwQHy++CFAgACBxQps27ZtsQVuYWnC4xbiV1i08DhAo20kPEZx01ZbzVcl7U5b3W233Zq0KmlaOTUfUYvtpimXETLPPffcyQqqZ5xxRltmui+xu2BOWgDmzjvvbANShMW+R3rkVPnf86AWo5R9+5VWgj3++OObT37yk2sW7IkVSfPpo2kl1rQCbL7/KfzF4jqxGuqzn/3s5tFHH+1dbTXdZzrvyGPUO4X7WNU2TVnt88gD6LRnXg7QtWyCgAVz9AECAwj4cjwA4og2Mbb+Mrb6jqgrF6mq8DgAa8mDLk1T7ZuOOcCuT91Euq9ymZ9T2LeYUEkT2yawFQIlP19SfRZRxlbYKZOAPq4PbEZgbJ+JY6vvZvqE9/x/AeFxgN5Q8qBbdHhM5QVLetbjAESDbSIftY2N5s9oHKwQGyKwRAIlP198sV6ihrYrRQUWcRwVrYCNL1RgbP1lbPVdaGdawcKExwEa1UE3AKJNECDQK7CIz5dFlKF5CWylgD6+lfr1lT22/jK2+tbXI5drj4XHAdrDQTcAok0QICA86gMECgk4TxeCXdHNjq2/jK2+K9ptF1Yt4XEAagfdAIg2QYCA8KgPECgk4DxdCHZFNzu2/jK2+q5ot11YtYTHAagddAMg2gQBAsKjPkCgkIDzdCHYFd3s2PrL2Oq7ot12YdUSHgegdtANgGgTBAhseXiMR+bEI3/i0Tr5T1qYKv397LPPbuIRO+knf3RN/rib9Pd4rE48YigetRN/P+2009rH9XSfIdu3ynP+CKPYXnpUUb5/sZBWPL4nPWqobx/S69/61rc23We/xt/SYmHxiKD4yfc5/j/248orr5yUEb/LHzHU9zxcXXp5BJynl6ctatiTsfWXsdW3hj64zPsoPA7QOg66ARBtggCBpQmPeTjMV3yOQBXhclZ47IbDCIXxc/nll28oPEZgu+GGGybBsy+8xv6deuqp7fb333//pvt4odjGrbfeumb16O6zX9N2jzrqqMn7u4E0hdh8hWfhsZ6D1nm6nrZahj0dW38ZW32XoY/VvA/C4wCt56AbANEmCBBYyvAYO5VGBI855phNhccIYjEqGI//ueuuu+YaeZw2yplva5dddmnD6GWXXdbEs3Aj4F111VXtCGf6mSc85iOneSPkv0/bue+++ybhWXis56B1nq6nrZZhT8fWX8ZW32XoYzXvg/A4QOs56AZAtAkCBJYyPOYhbkdGHvfee+92VG/eaasREi+66KLJqOO07hGhLn5i2xFyDzvssO2m1K438rjzzjs3xx13XBs+86m4sc18H66//vrmnnvuabefgvDDDz/cnHDCCc0FF1yw3RRc3Xm5BJynl6s9ln1vxtZfxlbfZe9/y75/wuMALeSgGwDRJggQWJrw2L3nMe4TjHC22XseDz/88Mm00Y2ExxTSYoSx7ydNWT3llFPa8BZh76abbmqnx8478rheeMynt6bwGIE2wubBBx/cxEis8FjHges8XUc7Lctejq2/jK2+y9LPat0P4XGAlnPQDYBoEwQILE147N7TmHZs3vDYvecxH8G7995755q2Os/I46zFeWK/Z01b3Wh4TPdtnn/++c2FF17YnHfeeUYeKzh2nacraKQl2sWx9Zex1XeJulqVuyI8DtBsDroBEG2CAIGlD4/54jn5FM9ZC+Lk9wZGJedZbXVaUE33OF566aXtvYfxk480dldsnRUe4/7Iee95jGmrqawo54EHHmgeeeQR4bGCY9d5uoJGWqJdHFt/GVt9l6irVbkrwuMAzeagGwDRJggQWPrwGDuYQlMsfpMWrIn7BWNqawTKvmmpmxl5TKOGfautxqqo6y3ek9/jOE94nHe11Tw8pvc8+OCDax7foRsvp4Dz9HK2y7Lu1dj6y9jqu6z9rpb9Eh4HaCkH3QCINkGAQBXhMQXIK664YrK/+bMX+6aS7rPPPus+gzH9/ZprrmnSwjpp493nPKb7L6dNa03lpzA7T3iMsuZ5zmMeHuM93cd56MLLK+A8vbxts4x7Nrb+Mrb6LmOfq2mfhMcBWstBNwCiTRAgsOXhURMQWFUB5+lVbdky9Rpbfxlbfcv0mvFsVXgcoK0ddAMg2gQBAsKjPkCgkIDzdCHYFd3s2PrL2Oq7ot12YdUSHgegdtANgGgTBAgIj/oAgUICztOFYFd0s2PrL2Or74p224VVS3gcgNpBNwCiTRAgIDzqAwQKCThPF4Jd0c2Orb+Mrb4r2m0XVi3hcQBqB90AiDZBgIDwqA8QKCTgPF0IdkU3O7b+Mrb6rmi3XVi1hMcBqB10AyDaBAECwqM+QKCQgPN0IdgV3ezY+svY6rui3XZh1RIeB6B20A2AaBMECAiP+gCBQgLO04VgV3SzY+svY6vvinbbhVVLeByA2kE3AKJNECAgPOoDBAoJOE8Xgl3RzY6tv4ytvivabRdWrUl4XFiJCiJAgAABAgQIECBAgACBKgUe0zTNtm3btlW583aaAAECBAgQIECAAAECBMoLmLZa3lgJBAgQIECAAAECBAgQqF5AeKy+CVWAAAECBAgQIECAAAEC5QWEx/LGSiBAgAABAgQIECBAgED1AsJj9U2oAgQIECBAgAABAgQIECgvIDyWN1YCAQIECBAgQIAAAQIEqhcQHqtvQhUgQIAAAQIECBAgQIBAeQHhsbyxEggQIECAAAECBAgQIFC9gPBYfROqAAECBAgQIECAAAECBMoLCI/ljZVAgAABAgQIECBAgACB6gWEx+qbUAUIECBAgAABAgQIECBQXkB4LG+sBAIECBAgQIAAAQIECFQvIDxW34QqQIAAAQIECBAgQIAAgfICwmN5YyUQIECAAAECBAgQIECgegHhsfomVAECBAgQIECAAAECBAiUFxAeyxsrgQABAgQIECBAgAABAtULCI/VN6EKECBAgAABAgQIECBAoLyA8FjeWAkECBAgQIAAAQIECBCoXkB4rL4JVYAAAQIECBAgQIAAAQLlBYTH8sZKIECAAAECBAgQIECAQPUCwmP1TagCBAgQIECAAAECBAgQKC8gPJY3VgIBAgQIECBAgAABAgSqFxAeq29CFSBAgAABAgQIECBAgEB5AeGxvLESCBAgQIAAAQIECBAgUL2A8Fh9E6oAAQIECBAgQIAAAQIEygsIj+WNlUCAAAECBAgQIECAAIHqBYTH6ptQBQgQIECAAAECBAgQIFBeQHgsb6wEAgQIECBAgAABAgQIVC8gPFbfhCpAgAABAgQIECBAgACB8gLCY3ljJRAgQIAAAQIECBAgQKB6AeGx+iZUAQIECBAgQIAAAQIECJQXEB7LGyuBAAECBAgQIECAAAEC1QsIj9U3oQoQIECAAAECBAgQIECgvIDwWN5YCQQIECBAgAABAgQIEKheQHisvglVgAABAgQIECBAgAABAuUFhMfyxkogQIAAAQIECBAgQIBA9QLCY/VNqAIECBAgQIAAAQIECBAoLyA8ljdWAgECBAgQIECAAAECBKoXEB6rb0IVIECAAAECBAgQIECAQHkB4bG8sRIIECBAgAABAgQIECBQvYDwWH0TqgABAgQIECBAgAABAgTKCwiP5Y2VQIAAAQIECBAgQIAAgeoFhMfqm1AFCBAgQIAAAQIECBAgUF5AeCxvrAQCBAgQIECAAAECBAhULyA8Vt+EKkCAAAECBAgQIECAAIHyAsJjeWMlECBAgAABAgQIECBAoHoB4bH6JlQBAgQIECBAgAABAgQIlBcQHssbK4EAAQIECBAgQIAAAQLVCwiP1TehChAgQIAAAQIECBAgQKC8gPBY3lgJBAgQIECAAAECBAgQqF5AeKy+CVWAAAECBAgQIECAAAEC5QWEx/LGSiBAgAABAgQIECBAgED1AsJj9U2oAgQIECBAgAABAgQIECgvIDyWN1YCAQIECBAgQIAAAQIEqhcQHqtvQhUgQIAAAQIECBAgQIBAeQHhsbyxEggQIECAAAECBAgQIFC9gPBYfROqAAECBAgQIECAAAECBMoLCI/ljZVAgAABAgQIECBAgACB6gWEx+qbUAUIECBAgAABAgQIECBQXkB4LG+sBAIECBAgQIAAAQIECFQvIDxW34QqQIAAAQIECBAgQIAAgfICwmN5YyUQIECAAAECBAgQIECgegHhsfomVAECBAgQIECAAAECBAiUFxAeyxsrgQABAgQIECBAgAABAtULCI/VN6EKECBAgAABAgQIECBAoLyA8FjeWAkECBAgQIAAAQIECBCoXkB4rL4JVYAAAQIECBAgQIAAAQLlBYTH8sZKIECAAAECBAgQIECAQPUCwmP1TagCBAgQIECAAAECBAgQKC8gPJY3VgIBAgQIECBAgAABAgSqFxAeq29CFSBAgAABAgQIECBAgEB5AeGxvLESCBAgQIAAAQIECBAgUL2A8Fh9E6oAAQIECBAgQIAAAQIEygsIj+WNlUCAAAECBAgQIECAAIHqBYTH6ptQBQgQIECAAAECBAgQIFBeQHgsb6wEAgQIECBAgAABAgQIVC8gPFbfhCpAgAABAgQIECBAgACB8gLCY3ljJRAgQIAAAQIECBAgQKB6AeGx+iZUAQIECBAgQIAAAQIECJQXEB7LGyuBAAECBAgQIECAAAEC1QsIj9U3oQoQIECAAAECBAgQIECgvIDwWN5YCQQIECBAgAABAgQIEKheQHisvglVgAABAgQIECBAgAABAuUFhMfyxkogQIAAAQIECBAgQIBA9QLCY/VNqAIECBAgQIAAAQIECBAoLyA8ljdWAgECBAgQIECAAAECBKoXEB6rb0IVIECAAAECBAgQIECAQHkB4bG8sRIIECBAgAABAgQIECBQvYDwWH0TqgABAgQIECBAgAABAgTKCwiP5Y2VQIAAAQIECBAgQIAAgeoFhMfqm1AFCBAgQIAAAQIECBAgUF5AeCxvrAQCBAgQIECAAAECBAhULyA8Vt+EKkCAAAECBAgQIECAAIHyAsJjeWMlECBAgAABAgQIECBAoHoB4bH6JlQBAgQIECBAgAABAgQIlBcQHssbK4EAAQIECBAgQIAAAQLVCwiP1TehChAgQIAAAQIECBAgQKC8gPBY3lgJBAgQIECAAAECBAgQqF5AeKy+CVWAAAECBAgQIECAAAEC5QWEx/LGSiBAgAABAgQIECBAgED1AsJj9U2oAgQIECBAgAABAgQIECgvIDyWN1YCAQIECBAgQIAAAQIEqhcQHqtvQhUgQIAAAQIECBAgQIBAeQHhsbyxEggQIECAAAECBAgQIFC9gPBYfROqAAECBAgQIECAAAECBMoLCI/ljZVAgAABAgQIECBAgACB6gWEx+qbUAUIECBAgAABAgQIECBQXkB4LG+sBAIECBAgQIAAAQIECFQvIDxW34QqQIAAAQIECBAgQIAAgfICwmN5YyUQIECAAAECBAgQIECgegHhsfomVAECBAgQIECAAAECBAiUFxAeyxsrgQABAgQIECBAgAABAtULCI/VN6EKECBAgAABAgQIECBAoLyA8FjeWAkECBAgQIAAAQIECBCoXkB4rL4JVYAAAQIECBAgQIAAAQLlBYTH8sZKIECAAAECBAgQIECAQPUCwmP1TagCBAgQIECAAAECBAgQKC8gPJY3VgIBAgQIECBAgAABAgSqFxAeq29CFSBAgAABAgQIECBAgEB5AeGxvLESCBAgQIAAAQIECBAgUL2A8Fh9E6oAAQIECBAgQIAAAQIEygsIj+WNlUCAAAECBAgQIECAAIHqBYTH6ptQBQgQIECAAAECBAgQIFBeQHgsb6wEAgQIECBAgAABAgQIVC8gPFbfhCpAgAABAgQIECBAgACB8gLCY3ljJRAgQIAAZV+KVgAAIABJREFUAQIECBAgQKB6AeGx+iZUAQIECBAgQIAAAQIECJQXEB7LGyuBAAECBAgQIECAAAEC1QsIj9U3oQoQIECAAAECBAgQIECgvIDwWN5YCQQIECBAgAABAgQIEKheQHisvglVgAABAgQIECBAgAABAuUFhMfyxkogQIAAAQIECBAgQIBA9QLCY/VNqAIECBAgQIAAAQIECBAoLyA8ljdWAgECBAgQIECAAAECBKoXEB6rb0IVIECAAAECBAgQIECAQHkB4bG8sRIIECBAgAABAgQIECBQvYDwWH0TqgABAgQIECBAgAABAgTKCwiP5Y2VQIAAAQIECBAgQIAAgeoFhMfqm1AFCBAgQIAAAQIECBAgUF5AeCxvrAQCBAgQIECAAAECBAhULyA8Vt+EKkCAAAECBAgQIECAAIHyAsJjeWMlECBAgAABAgQIECBAoHoB4bH6JlQBAgQIECBAgAABAgQIlBcQHssbK4EAAQIECBAgQIAAAQLVCwiP1TehChAgQIAAAQIECBAgQKC8gPBY3lgJBAgQIECAAAECBAgQqF5AeKy+CVWAAAECBAgQIECAAAEC5QWEx/LGSiBAgAABAgQIECBAgED1AsJj9U2oAgQIECBAgAABAgQIECgvIDyWN1YCAQIECBAgQIAAAQIEqhcQHqtvQhUgQIAAAQIECBAgQIBAeQHhsbyxEggQIECAAAECBAgQIFC9gPBYfROqAAECBAgQIECAAAECBMoLCI/ljZVAgAABAgQIECBAgACB6gWEx+qbUAUIECBAgAABAgQIECBQXkB4LG+sBAIECBAgQIAAAQIECFQvIDxW34QqQIAAAQIECBAgQIAAgfICwmN5YyUQIECAAAECBAgQIECgegHhsfomVAECBAgQIECAAAECBAiUFxAeyxsrgQABAgQIECBAgAABAtULCI/VN6EKECBAgAABAgQIECBAoLyA8FjeWAkECBAgQIAAAQIECBCoXkB4rL4JVYAAAQIECBAgQIAAAQLlBYTH8sZKIECAAAECBAgQIECAQPUCwmP1TagCBAgQIECAAAECBAgQKC8gPJY3VgIBAgQIECBAgAABAgSqFxAeq29CFSBAgAABAgQIECBAgEB5AeGxvLESCBAgQIAAAQIECBAgUL2A8Fh9E6oAAQIECBAgQIAAAQIEygsIj+WNlUCAAAECBAgQIECAAIHqBYTH6ptQBQgQIECAAAECBAgQIFBeQHgsb6wEAgQIECBAgAABAgQIVC8gPFbfhCpAgAABAgQIECBAgACB8gLCY3ljJRAgQIAAAQIECBAgQKB6AeGx+iZUAQIECBAgQIAAAQIECJQXEB7LGyuBAAECBAgQIECAAAEC1QsIj9U3oQoQIECAAAECBAgQIECgvIDwWN5YCQQIECBAgAABAgQIEKheQHisvglVgAABAgQIECBAgAABAuUFhMfyxkogQIAAAQIECBAgQIBA9QLCY/VNqAIECBAgQIAAAQIECBAoLyA8ljdWAgECBAgQIECAAAECBKoXEB6rb0IVIECAAAECBAgQIECAQHkB4bG8sRIIECBAgAABAgQIECBQvYDwWH0TqgABAgQIECBAgAABAgTKCwiP5Y2VQIAAAQIECBAgQIAAgeoFhMfqm1AFCBAgQIAAAQIECBAgUF5AeCxvrAQCBAgQIECAAAECBAhULyA8Vt+EKkCAAAECBAgQIECAAIHyAsJjeWMlECBAgAABAgQIECBAoHoB4bH6JlQBAgQIECBAgAABAgQIlBcQHssbK4EAAQIECBAgQIAAAQLVCwiP1TehChAgQIAAAQIECBAgQKC8gPBY3lgJBAgQIECAAAECBAgQqF5AeKy+CVWAAAECBAgQIECAAAEC5QWEx/LGSiBAgAABAgQIECBAgED1AsJj9U2oAgQIECBAgAABAgQIECgvIDyWN1YCAQIECBAgQIAAAQIEqhcQHqtvQhUgQIAAAQIECBAgQIBAeQHhsbyxEggQIECAAAECBAgQIFC9gPBYfROqAAECBAgQIECAAAECBMoLCI/ljZVAgAABAgQIECBAgACB6gWEx+qbUAUIECBAgAABAgQIECBQXkB4LG+sBAIECBAgQIAAAQIECFQvIDxW34QqQIAAAQIECBAgQIAAgfICwmN5YyUQIECAAAECBAgQIECgegHhsfomVAECBAgQIECAAAECBAiUFxAeyxsrgQABAgQIECBAgAABAtULCI/VN6EKECBAgAABAgQIECBAoLyA8FjeWAkECBAgQIAAAQIECBCoXkB4rL4JVYAAAQIECBAgQIAAAQLlBYTH8sZKIECAAAECBAgQIECAQPUCwmP1TagCBAgQIECAAAECBAgQKC8gPJY3VgIBAgQIECBAgAABAgSqFxAeq29CFSBAgAABAgQIECBAgEB5AeGxvLESCBAgQIAAAQIECBAgUL2A8Fh9E6oAAQIECBAgQIAAAQIEygsIj+WNlUCAAAECBAgQIECAAIHqBYTH6ptQBQgQIECAAAECBAgQIFBeQHgsb6wEAgQIECBAgAABAgQIVC8gPFbfhCpAgAABAgQIECBAgACB8gLCY3ljJRAgQIAAAQIECBAgQKB6AeGx+iZUAQIECBAgQIAAAQIECJQXEB7LGyuBAAECBAgQIECAAAEC1QsIj9U3oQoQIECAAAECBAgQIECgvIDwWN5YCQQIECBAgAABAgQIEKheQHisvglVgAABAgQIECBAgAABAuUFhMfyxkogQIAAAQIECBAgQIBA9QLCY/VNqAIECBAgQIAAAQIECBAoLyA8ljdWAgECBAgQIECAAAECBKoXEB6rb0IVIECAAAECBAgQIECAQHkB4bG8sRIIECBAgAABAgQIECBQvYDwWH0TqgABAgQIECBAgAABAgTKCwiP5Y2VQIAAAQIECBAgQIAAgeoFhMfqm1AFCBAgQIAAAQIECBAgUF5AeCxvrAQCBAgQIECAAAECBAhULyA8Vt+EKkCAAAECBAgQIECAAIHyAsJjeWMlECBAgAABAgQIECBAoHoB4bH6JlQBAgQIECBAgAABAgQIlBcQHssbK4EAAQIECBAgQIAAAQLVCwiP1TehChAgQIAAAQIECBAgQKC8gPBY3lgJBAgQIECAAAECBAgQqF5AeKy+CVWAAAECBAgQIECAAAEC5QWEx/LGSiBAgAABAgQIECBAgED1AsJj9U2oAgQIECBAgAABAgQIECgvIDyWN1YCAQIECBAgQIAAAQIEqhcQHqtvQhUgQIAAAQIECBAgQIBAeQHhsbyxEggQIECAAAECBAgQIFC9gPBYfROqAAECBAgQIECAAAECBMoLCI/ljZVAgAABAgQIECBAgACB6gWEx+qbUAUIECBAgAABAgQIECBQXkB4LG+sBAIECBAgQIAAAQIECFQvIDxW34QqQIAAAQIECBAgQIAAgfICwmN5YyUQIECAAAECBAgQIECgegHhsfomVAECBAgQIECAAAECBAiUFxAeyxsrgQABAgQIECBAgAABAtULCI/VN6EKECBAgAABAgQIECBAoLyA8FjeWAkECBAgQIAAAQIECBCoXkB4rL4JVYAAAQIECBAgQIAAAQLlBYTH8sZKIECAAAECBAgQIECAQPUCwmP1TagCBAgQIECAAAECBAgQKC8gPJY3VgIBAgQIECBAgAABAgSqFxAeq29CFSBAgAABAgQIECBAgEB5AeGxvLESCBAgQIAAAQIECBAgUL2A8Fh9E6oAAQIECBAgQIAAAQIEygsIj+WNlUCAAAECBAgQIECAAIHqBYTH6ptQBQgQIECAAAECBAgQIFBeQHgsb6wEAgQIECBAgAABAgQIVC8gPFbfhCpAgAABAgQIECBAgACB8gLCY3ljJRAgQIAAAQIECBAgQKB6AeGx+iZUAQIECBAgQIAAAQIECJQXEB7LGyuBAAECBAgQIECAAAEC1QsIj9U3oQoQIECAAAECBAgQIECgvIDwWN5YCQQIECBAgAABAgQIEKheQHisvglVgAABAgQIECBAgAABAuUFhMfyxkogQIAAAQIECBAgQIBA9QLCY/VNqAIECBAgQIAAAQIECBAoLyA8ljdWAgECBAgQIECAAAECBKoXEB6rb0IVIECAAAECBAgQIECAQHkB4bG8sRIIECBAgAABAgQIECBQvYDwWH0TqgABAgQIECBAgAABAgTKCwiP5Y2VQIAAAQIECBAgQIAAgeoFhMfqm1AFCBAgQIAAAQIECBAgUF5AeCxvrAQCBAgQIECAAAECBAhULyA8Vt+EKkCAAAECBAgQIECAAIHyAsJjeWMlECBAgAABAgQIECBAoHoB4bH6JlQBAgQIECBAgAABAgQIlBcQHssbK4EAAQIECBAgQIAAAQLVCwiP1TehChAgQIAAAQIECBAgQKC8gPBY3lgJBAgQIECAAAECBAgQqF5AeKy+CVWAAAECBAgQIECAAAEC5QWEx/LGSiBAgAABAgQIECBAgED1AsJj9U2oAgQIECBAgAABAgQIECgvIDyWN1YCAQIECBAgQIAAAQIEqhcQHqtvQhUgQIAAAQIECBAgQIBAeQHhsbyxEggQIECAAAECBAgQIFC9gPBYfROqAAECBAgQIECAAAECBMoLCI/ljZVAgAABAgQIECBAgACB6gWEx+qbUAUIECBAgAABAgQIECBQXkB4LG+sBAIECBAgQIAAAQIECFQvIDxW34QqQIAAAQIECBAgQIAAgfICwmN5YyUQIECAAAECBAgQIECgegHhsfomVAECBAgQIECAAAECBAiUFxAeyxsrgQABAgQIECBAgAABAtULCI/VN6EKECBAgAABAgQIECBAoLyA8FjeWAkECBAgQIAAAQIECBCoXkB4rL4JVYAAAQIECBAgQIAAAQLlBYTH8sZKIECAAAECBAgQIECAQPUCwmP1TagCBAgQIECAAAECBAgQKC8gPJY3VgIBAgQIECBAgAABAgSqFxAeq29CFSBAgAABAgQIECBAgEB5AeGxvLESCBAgQIAAAQIECBAgUL2A8Fh9E6oAAQIECBAgQIAAAQIEygsIj+WNlUCAAAECBAgQIECAAIHqBYTH6ptQBQgQIECAAAECBAgQIFBeQHgsb6wEAgQIECBAgAABAgQIVC8gPFbfhCpAgAABAgQIECBAgACB8gLCY3ljJRAgQIAAAQIECBAgQKB6AeGx+iZUAQIECBAgQIAAAQIECJQXEB7LGyuBAAECBAgQIECAAAEC1QsIj9U3oQoQIECAAAECBAgQIECgvIDwWN5YCQQIECBAgAABAgQIEKheQHisvglVgAABAgQIECBAgAABAuUFhMfyxkogQIAAAQIECBAgQIBA9QLCY/VNqAIECBAgQIAAAQIECBAoLyA8ljdWAgECBAgQIECAAAECBKoXEB6rb0IVIECAAAECBAgQIECAQHkB4bG8sRIIECBAgAABAgQIECBQvYDwWH0TqgABAgQIECBAgAABAgTKCwiP5Y2VQIAAAQIECBAgQIAAgeoFhMfqm1AFCBAgQIAAAQIECBAgUF5AeCxvrAQCBAgQIECAAAECBAhULyA8Vt+EKkCAAAECBAgQIECAAIHyAsJjeWMlECBAgAABAgQIECBAoHoB4bH6JlQBAgQIECBAgAABAgQIlBcQHssbK4EAAQIECBAgQIAAAQLVCwiP1TehChAgQIAAAQIECBAgQKC8gPBY3lgJBAgQIECAAAECBAgQqF5AeKy+CVWAAAECBAgQIECAAAEC5QWEx/LGSiBAgAABAgQIECBAgED1AsJj9U2oAgQIECBAgAABAgQIECgvIDyWN1YCAQIECBAgQIAAAQIEqhcQHqtvQhUgQIAAAQIECBAgQIBAeQHhsbyxEggQIECAAAECBAgQIFC9gPBYfROqAAECBAgQIECAAAECBMoLCI/ljZVAgAABAgQIECBAgACB6gWEx+qbUAUIECBAgAABAgQIECBQXkB4LG+sBAIECBAgQIAAAQIECFQvIDxW34QqQIAAAQIECBAgQIAAgfICwmN5YyUQIECAAAECBAgQIECgegHhsfomVAECBAgQIECAAAECBAiUFxAeyxsrgQABAgQIECBAgAABAtULCI/VN6EKECBAgAABAgQIECBAoLyA8FjeWAkECBAgQIAAAQIECBCoXkB4rL4JVYAAAQIECBAgQIAAAQLlBYTH8sZKIECAAAECBAgQIECAQPUCwmP1TagCBAgQIECAAAECBAgQKC8gPJY3VgIBAgQIECBAgAABAgSqFxAeq29CFSBAgAABAgQIECBAgEB5AeGxvLESCBAgQIAAAQIECBAgUL2A8Fh9E6oAAQIECBAgQIAAAQIEygsIj+WNlUCAAAECBAgQIECAAIHqBYTH6ptQBQgQIECAAAECBAgQIFBeQHgsb6wEAgQIECBAgAABAgQIVC8gPFbfhCpAgAABAgQIECBAgACB8gLCY3ljJRAgQIAAAQIECBAgQKB6AeGx+iZUAQIECBAgQIAAAQIECJQXEB7LGyuBAAECBAgQIECAAAEC1QsIj9U3oQoQIECAAAECBAgQIECgvIDwWN5YCQQIECBAgAABAgQIEKheQHisvglVgAABAgQIECBAgAABAuUFhMfyxkogQIAAAQIECBAgQIBA9QLCY/VNqAIECBAgQIAAAQIECBAoLyA8ljdWAgECBAgQIECAAAECBKoXEB6rb0IVIECAAAECBAgQIECAQHkB4bG8sRIIECBAgAABAgQIECBQvYDwWH0TqgABAgQIECBAgAABAgTKCwiP5Y2VQIAAAQIECBAgQIAAgeoFhMfqm1AFCBAgQIAAAQIECBAgUF5AeCxvrAQCBAgQIECAAAECBAhULyA8Vt+EKkCAAAECBAgQIECAAIHyAsJjeWMlECBAgAABAgQIECBAoHoB4bH6JlQBAgQIECBAgAABAgQIlBcQHssbK4EAAQIECBAgQIAAAQLVCwiP1TehChAgQIAAAQIECBAgQKC8gPBY3lgJBAgQIECAAAECBAgQqF5AeKy+CVWAAAECBAgQIECAAAEC5QWEx/LGSiBAgAABAgQIECBAgED1AsJj9U2oAgQIECBAgAABAgQIECgvIDyWN1YCAQIECBAgQIAAAQIEqhcQHqtvQhUgQIAAAQIECBAgQIBAeQHhsbyxEggQIECAAAECBAgQIFC9gPBYfROqAAECBAgQIECAAAECBMoLCI/ljZVAgAABAgQIECBAgACB6gWEx+qbUAUIECBAgAABAgQIECBQXkB4LG+sBAIECBAgQIAAAQIECFQvIDxW34QqQIAAAQIECBAgQIAAgfICwmN5YyUQIECAAAECBAgQIECgegHhsfomVAECBAgQIECAAAECBAiUFxAeyxsrgQABAgQIECBAgAABAtULCI/VN6EKECBAgAABAgQIECBAoLyA8FjeWAkECBAgQIAAAQIECBCoXkB4rL4JVYAAAQIECBAgQIAAAQLlBYTH8sZKIECAAAECBAgQIECAQPUCwmP1TagCBAgQIECAAAECBAgQKC8gPJY3VgIBAgQIECBAgAABAgSqFxAeq29CFSBAgAABAgQIECBAgEB5AeGxvLESCBAgQIAAAQIECBAgUL2A8Fh9E6oAAQIECBAgQIAAAQIEygsIj+WNlUCAAAECBAgQIECAAIHqBYTH6ptQBQgQIECAAAECBAgQIFBeQHgsb6wEAgQIECBAgAABAgQIVC8gPFbfhCpAgAABAgQIECBAgACB8gLCY3ljJRAgQIAAAQIECBAgQKB6AeGx+iZUAQIECBAgQIAAAQIECJQXEB7LGyuBAAECBAgQIECAAAEC1QsIj9U3oQoQIECAAAECBAgQIECgvIDwWN5YCQQIECBAgAABAgQIEKheQHisvglVgAABAgQIECBAgAABAuUFhMfyxkogQIAAAQIECBAgQIBA9QLCY/VNqAIECBAgQIAAAQIECBAoLyA8ljdWAgECBAgQIECAAAECBKoXEB6rb0IVIECAAAECBAgQIECAQHkB4bG8sRIIECBAgAABAgQIECBQvYDwWH0TqgABAgQIECBAgAABAgTKCwiP5Y2VQIAAAQIECBAgQIAAgeoFhMfqm1AFCBAgQIAAAQIECBAgUF5AeCxvrAQCBAgQIECAAAECBAhULyA8Vt+EKkCAAAECBAgQIECAAIHyAsJjeWMlECBAgAABAgQIECBAoHoB4bH6JlQBAgQIECBAgAABAgQIlBcQHssbK4EAAQIECBAgQIAAAQLVCwiP1TehChAgQIAAAQIECBAgQKC8gPBY3lgJBAgQIECAAAECBAgQqF5AeKy+CVWAAAECBAgQIECAAAEC5QWEx/LGSiBAgAABAgQIECBAgED1AsJj9U2oAgQIECBAgAABAgQIECgvIDyWN1YCAQIECBAgQIAAAQIEqhcQHqtvQhUgQIAAAQIECBAgQIBAeQHhsbyxEggQIECAAAECBAgQIFC9gPBYfROqAAECBAgQIECAAAECBMoLCI/ljZVAgAABAgQIECBAgACB6gWEx+qbUAUIECBAgAABAgQIECBQXkB4LG+sBAIECBAgQIAAAQIECFQvIDxW34QqQIAAAQIECBAgQIAAgfICwmN5YyUQIECAAAECBAgQIECgegHhsfomVAECBAgQIECAAAECBAiUFxAeyxsrgQABAgQIECBAgAABAtULCI/VN6EKECBAgAABAgQIECBAoLyA8FjeWAkECBAgQIAAAQIECBCoXkB4rL4JVYAAAQIECBAgQIAAAQLlBYTH8sZKIECAAAECBAgQIECAQPUCwmP1TagCBAgQIECAAAECBAgQKC8gPJY3VgIBAgQIECBAgAABAgSqFxAeq29CFSBAgAABAgQIECBAgEB5AeGxvLESCBAgQIAAAQIECBAgUL2A8Fh9E6oAAQIECBAgQIAAAQIEygsIj+WNlUCAAAECBAgQIECAAIHqBYTH6ptQBQgQIECAAAECBAgQIFBeQHgsb6wEAgQIECBAgAABAgQIVC8gPFbfhCpAgAABAgQIECBAgACB8gLCY3ljJRAgQIAAAQIECBAgQKB6AeGx+iZUAQIECBAgQIAAAQIECJQXEB7LGyuBAAECBAgQIECAAAEC1QsIj9U3oQoQIECAAAECBAgQIECgvIDwWN5YCQQIECBAgAABAgQIEKheQHisvglVgAABAgQIECBAgAABAuUFhMfyxkogQIAAAQIECBAgQIBA9QLCY/VNqAIECBAgQIAAAQIECBAoLyA8ljdWAgECBAgQIECAAAECBKoXEB6rb0IVIECAAAECBAgQIECAQHkB4bG8sRIIECBAgAABAgQIECBQvYDwWH0TqgABAgQIECBAgAABAgTKCwiP5Y2VQIAAAQIECBAgQIAAgeoFhMfqm1AFCBAgQIAAAQIECBAgUF5AeCxvrAQCBAgQIECAAAECBAhULyA8Vt+EKkCAAAECBAgQIECAAIHyAsJjeWMlECBAgAABAgQIECBAoHoB4bH6JlQBAgQIECBAgAABAgQIlBcQHssbK4EAAQIECBAgQIAAAQLVCwiP1TehChAgQIAAAQIECBAgQKC8gPBY3lgJBAgQIECAAAECBAgQqF5AeKy+CVWAAAECBAgQIECAAAEC5QWEx/LGSiBAgAABAgQIECBAgED1AsJj9U2oAgQIECBAgAABAgQIECgvIDyWN1YCAQIECBAgQIAAAQIEqhcQHqtvQhUgQIAAAQIECBAgQIBAeQHhsbyxEggQIECAAAECBAgQIFC9gPBYfROqAAECBAgQIECAAAECBMoLCI/ljZVAgAABAgQIECBAgACB6gWEx+qbUAUIECBAgAABAgQIECBQXkB4LG+sBAIECBAgQIAAAQIECFQvIDxW34QqQIAAAQIECBAgQIAAgfICwmN5YyUQIECAAAECBAgQIECgegHhsfomVAECBAgQIECAAAECBAiUFxAeyxsrgQABAgQIECBAgAABAtULCI/VN6EKECBAgAABAgQIECBAoLyA8FjeWAkECBAgQIAAAQIECBCoXkB4rL4JVYAAAQIECBAgQIAAAQLlBYTH8sZKIECAAAECBAgQIECAQPUCwmP1TagCBAgQIECAAAECBAgQKC8gPJY3VgIBAgQIECBAgAABAgSqFxAeq29CFSBAgAABAgQIECBAgEB5AeGxvLESCBAgQIAAAQIECBAgUL2A8Fh9E6oAAQIECBAgQIAAAQIEygsIj+WNlUCAAAECBAgQIECAAIHqBYTH6ptQBQgQIECAAAECBAgQIFBeQHgsb6wEAgQIECBAgAABAgQIVC8gPFbfhCpAgAABAgQIECBAgACB8gLCY3ljJRAgQIAAAQIECBAgQKB6AeGx+iZUAQIECBAgQIAAAQIECJQXEB7LGyuBAAECBAgQIECAAAEC1QsIj9U3oQoQIECAAAECBAgQIECgvIDwWN5YCQQIECBAgAABAgQIEKheQHisvglVgAABAgQIECBAgAABAuUFhMfyxkogQIAAAQIECBAgQIBA9QLCY/VNqAIECBAgQIAAAQIECBAoLyA8ljdWAgECBAgQIECAAAECBKoXEB6rb0IVIECAAAECBAgQIECAQHkB4bG8sRIIECBAgAABAgQIECBQvYDwWH0TqgABAgQIECBAgAABAgTKCwiP5Y2VQIAAAQIECBAgQIAAgeoFhMfqm1AFCBAgQIAAAQIECBAgUF5AeCxvrAQCBAgQIECAAAECBAhULyA8Vt+EKkCAAAECBAgQIECAAIHyAsJjeWMlECBAgAABAgQIECBAoHoB4bH6JlQBAgQIECBAgAABAgQIlBcQHssbK4EAAQIECBAgQIAAAQLVCwiP1TehChAgQIAAAQIECBAgQKC8gPBY3lgJBAgQIECAAAECBAgQqF5AeKy+CVWAAAECBAgQIECAAAEC5QWEx/LGSiBgRkUFAAAgAElEQVRAgAABAgQIECBAgED1AsJj9U2oAgQIECBAgAABAgQIECgvIDyWN1YCAQIECBAgQIAAAQIEqhcQHqtvQhUgQIAAAQIECBAgQIBAeQHhsbyxEggQIECAAAECBAgQIFC9gPBYfROqAAECBAgQIECAAAECBMoLCI/ljZVAgAABAgQIECBAgACB6gWEx+qbUAUIECBAgAABAgQIECBQXmASHssXpQQCBAgQIECAAAECBAgQqFngMU3TbNu2bVvNdbDvBCYCcUVEf9YhCBAgQIDAcgo4Ty9nu9grAvMImLY6j5LXVCXgpFRVc9lZAgQIEBiZgPP0yBpcdVdKQHhcqeZUmRBwUtIPCBAgQIDA8go4Ty9v29gzArMEhMdZQv5enYCTUnVNZocJECBAYEQCztMjamxVXTkB4XHlmlSFnJT0AQIECBAgsLwCztPL2zb2jMAsAeFxlpC/VyfgpFRdk9lhAgQIEBiRgPP0iBpbVVdOQHhcuSZVISclfYAAAQIECCyvgPP08raNPSMwS0B4nCXk79UJOClV12R2mAABAgRGJOA8PaLGVtWVExAeV65JVchJSR8gQIAAAQLLK+A8vbxtY88IzBKYKzx+5zvfaY488sjmwAMPbC6//PI123zb297W3Hrrrc3VV1/d7LLLLu3fHnrooea4445rbrzxxslrTz755DXvTdu8/fbb12xvn332aa699trmoIMOmrqt/A0f+chHmiOOOGJWPf19RALznJRe+cpXNldccUWvSuqD999/f3PRRRc10cfuvffe5qUvfWlz9913974n+ne8Nvp9vK6vT07r87HBbr8fUXOpKgECBAiMTKDvPB3fJ6+88so13wGDJZ07zz777PbcGq+75557tvs+2ve6G264oT2H77XXXtsJx3bS33feeeftvremN+TfMz/60Y+234f7fg4//PD2u/DDDz/cvqb7/Tbe0/0uPLJmV90VEdhQeIwDoRvWuuHxtttua788H3bYYWsO7Piy/qUvfWlyEMdBfsIJJzQXXHDBJCiGaRyYZ5111uTDIwXRaV/IV6QdVGNAgXnCY15c9Lm4YJFfAEl9MYXH/MQzrU/O6qvT+vyAVbcpAgQIECCw9ALTwmN8/0shLA1I7Eh4/PCHP9zsu+++zaWXXjoZ4Ejn9wh4z3rWs9rvpSk8dr9rdr+TTvu+kINPO9enehx11FHNmWeeufRtZAcJTBOYOzxG0Nttt92ab3zjG2uu4uThMQqJkZeDDz6498CIABk/MXq53hfpvm3OCo99I6CafZwCNYfHFECnHUPjbFG1JkCAAIFVEpgWHmMm23333dfkAWtHwmNsL767HnvssWsGKtL30TSoMS08dr+r7kh4jPbzXXWVevF467Kh8BhXSiL4xYGYpq/mB8Jdd93VnHbaac0ll1yy5iBNvDEqef755zdXXXVV+6u+kcf4ff66aQf0eJtMzWcJ1BweZ9XN3wkQIECAQO0C08JjTEeNmWv5DLQdDY8x1fWBBx6YDGrE9uK76nOf+9zmve9978yRx5tuumnynVd4rL3n2f8hBDYUHmOKafzEKOBb3/rWydzzdM/jzTffPLlHrG9+eX4FZ88995waHvPX7bffflPnoafpBn1lDYFjG3UKLHN4nHYfRHeaTp3y9poAAQIECMwWWC88xuBEjAxG4MvvIdzMPY/x/fSNb3xjO201bkOJqbARACMQRkhNt6asd89jfn5e757H+F4cgyymrc5uf6+oW2DD4TEWsslvMr7++usnC+aUDI+zpq3W3Qz2fkiBZQ6P00bbh6y/bREgQIAAgWUWmBUe8/sDjznmmHYBms2GxwigF154YbuN+A4bwTSCY/x0w2P3u2ZaxyMNmMw78jjtQnEKmMvcNvaNwCyBTYXHdF9WTF/de++9J+HRtNVZ3P6+CAHhcRHKyiBAgAABApsTmBUeY6tpsZoIXBHydiQ8xuBGjDaec845k9urYhHIWeEx9iNfr2Pe8Ni9UNxdNHJzat5FYDkENhUeY9fT1ZinPOUpzROf+MR2akH8bNWCOcvBaS+WQUB4XIZWsA8ECBAgQKBfYJ7wmILbF7/4xeYHP/jB5HapaQEuvpfm627ka3LE4zPSfY5f+9rX2nsYYzvzhscYKIkpqZsNj2nQJerUXdldHyFQm8Cmw2NUNA7M7rLKHtVRWxdYvf0VHlevTdWIAAECBFZHYN7wmD8fOT0qbtojL/L7JOPexu7Kpun5zmk784THbiDdbHjMB126j7JbnVZVk7EI7FB4nHYlJf3+xhtvnDh2H4w67YHp3UVw+raVN07aruWPx9JlZ9dzq8Nj3u/T3sbJKvr2tPsg4nUxNefEE09cd/R+du29ggABAgQILLfAvOExapEWqcmfMz7P98zu98I8LMZCi33hcdr5O1ZszfelT3efffZpnxm93oKQqS7ufVzu/mnv1heYKzxCJFCTwEbDY011s68ECBAgQKB2Aefp2lvQ/o9ZQHgcc+uvaN2dlFa0YVWLAAECBFZCwHl6JZpRJUYqIDyOtOFXudpOSqvcuupGgAABArULOE/X3oL2f8wCwuOYW39F6+6ktKINq1oECBAgsBICztMr0YwqMVIB4XGkDb/K1XZSWuXWVTcCBAgQqF3Aebr2FrT/YxYQHsfc+itadyelFW1Y1SJAgACBlRBwnl6JZlSJkQoIjyNt+FWutpPSKreuuhEgQIBA7QLO07W3oP0fs4DwOObWX9G6OymtaMOq1pYJxHN5/+Vf/qX51V/91eaAAw7Ysv1QMAECqyHgPL0a7agW4xQQHsfZ7itdayel4Zr3tttua1760pc2T3/605urr7662WWXXYbb+Ii3FGHsyCOPbB588MH2odK33HJLc9ZZZzWHH374Guf0uttvv31draEeOH3nnXc273nPe5rPfOYzzR133LGmzJ122qndt9hvPwQIENgRAefpHdHzXgJbKyA8bq2/0gsIOCkNhyo8DmeZb2mj4fGb3/xms/feezc/9VM/tWaHfvjDHzbf+ta3mh0Nj9u2bWve+973Nueee27zwAMPbFfpX/mVX2lD4znnnNPsvPPOZVBslQCB0Qg4T4+mqVV0BQWExxVs1LFXyUlpx3pABJUrr7yyHX2Kfz/yyCPtBnfbbbdmv/32a/7wD/+wOf7445uf//mf37GCRvzubnj8/Oc/3/zpn/7p1JHHoPrIRz7S7LXXXmvU3va2t7UjljsaHr/yla80xx57bPO4xz2uOf/885tDDz20ecITnjDiFlJ1AgRKCjhPl9S1bQJlBYTHsr62vgUCTkqbQ//f//3f5uKLL26DyE9+8pM2KP7yL/9yc/PNN7fB8WlPe1rzxS9+sR3peupTn9q+7o/+6I82V9jI3xUjhi972cuau+++u3n/+9/f/Nu//Vvz4he/uHnJS17SXH755ROdFDJLh8cLL7ywed/73teOPv7Wb/3WyFtH9QkQKC3gPF1a2PYJlBMQHsvZ2vIWCTgpbRw+pi1GcPzzP//zZt99923/HSEiRsTyex7jvrcPfOAD7eseffTR9v64P/iDP2i+/OUvt+EnQuYHP/jB9r/5z3333de86EUvan8V7//3f//3druHHXbYmrAUf+8LTGn6bP76uF/wda97XfOhD32oeeELX9huZ72RuL5tpLL22GOP7e7p/Nd//de2TjEqF6N+RxxxRLv/Eaw//OEPt+XF39LIbF7f/PV9rRHeJ598chP3GN5www3Nd7/73TY4vuIVr2jOPPPMyVu+/e1vN3/8x3/cPPGJT+x1Xa++0T5XXXVVc9111zV33XVXO+X1mc98ZvMnf/InzdFHHz2ZAvtf//Vfbbn//d//3bzjHe9oR53/5m/+pvn617/ejnTGfZivec1r2gsJ+U/UIS4sxHvCISzjnti+Mqbdu5lef/rppzfPf/7zmzh24ye1VYTraT/d+0NT37nsssuaG2+8cbL/z3ve89rptt39f+UrX9ncdNNN7T2nBx100Jpi+lynvT4uusTfInhHm+bhP/rKxz/+8ebd7353e19ruihz6qmntsdDdxrytLpGW8Z243hL7RJ9/uyzz95uBsBXv/rV9jj4whe+0F7oiWM2LgRF/zrhhBOan/3Zn11TzCzrPud5yph14SPMrrjiijXH1nqfXLPu/33Ws561ZnT+oYceao477ri2L0z72Weffda0/w9+8IP2sy+O33Du/nTL2PgnrXckAedpfYFAvQLCY71tZ8+nCDgpbbxrpC+Q8c589GnaPY8xShVfgJ/97Ge3X75iumMEkPgyfs011zS///u/v2Yn4gt0fHE95ZRT2uDZF+TSG+YNj/FlOu7Re+5zn9tOs4xQNFR4jGAUX8xjdDV+8jD4V3/1V80b3vCG9kv5c57znGbXXXed1DW+sEfgnhUe4w0XXXRRO5Ib3g8//HBz1FFHNa997WsnITUPUdMWLJpW33vvvbdtn7/9279tFzv6zd/8zebHP/5xOxX5nnvuaU477bS2bj/zMz/T/Od//mcbLH7hF36hiSD0qU99qvmN3/iNdnQ5AnS01VOe8pQ2VB588MFtXfOLDU960pOa3/md32k9otxbb721DdTRzjEVN4W6uGcyAmr0mZ/+6Z9uf/+Nb3yj9Xr84x8/uRCR1zt+n78+/vY///M/zd///d+3ITVfxCnsX/WqV7WmsZ/PeMYzmrho8elPf7rZfffdm3e9613NIYccMmmrocLj3/3d3zUvf/nL23tF8/AYlmEQ4Tr1lfjv5z73ufaiQd4G6x2xsZ2YmnzJJZc0EV4OPPDA5mtf+1rrHH0m6pUWsooLKRHE4yf1zbjI8tnPfrYN9/G3v/iLv2ge+9jHTopMx2JcNIowlX4iSH3iE59ozXLnecv43ve+N1lcqW/K9WbDY3zWRNumn9QfnvzkJ/eGxwjt8XnUnWYf/eU//uM/JuExwmZ8hsTFnHTMJKdpZWz8k9Y7koDztL5AoF4B4bHetrPnUwSclDbeNd7+9re3X/TjSn2EhPSlaVp4jGmWMXoVwSPCYoST+G9MxTzj/7V3JiBTVe8fv3/SKMollxYzhQzDdtIsK3JpMxNtI8V2LG0hLBVsUTFTW7DQKCUNoY0sw6KSysxEE7Iyg2y1RSgyDbUyKDDwz+f8eqbz3vfOzL1z533n3pnvAal35p7t+5y553zPs02a5EicaZEgGhCZN954wz0zcODA1OSRAzGaSw7jaNdMm1It8rhu3Trn12maLyODEAQ0PhzEo0w8kx6Iy0nK8D/llFNcf2gg/RI1X0jilClTgnnz5jncIamGj5FKNIaQR8bra3TQGFNv1KhRBZKIJhmZ9unTx2kxu3XrVtA0d+nSxY2LgDpWDDs+43meKaXhtYsINKy29koFaopqy7RMEF+IFv8gxhQjO/74+bwa5JF1yKUIJJ3ik0e005BZ0ptw0WEpTqgzbty44O233y7IoNQ6gPjhj4r2EKwg60Z0IHeYPWM+btr9HTt2NCPKW7Zscb9NyPvSpUvdxYAVyCzts5ZMu853UTJI0gc+sxaZtxrk0bTwrE1fO19Mw2lrAqIepV0Oyx8swYF3Ge8U/1KonBa13O9Y3zdHQPu0VoUQyC8CIo/5lZ1GLvJYtTVgpOeBBx5wGjcrxQ7xvkmYESuC62CKB1HBNBVTUIoRTUiHaTDSah45mE+YMMEdeNGaWakGecREcPz48c6UlAMk87M5kjKD/tDScJDv2LFjExlUmzyuXr3aHWgx6fTNIUvNlxQbmNsyNsg6UVr9YmTEyBSEgkM+cwsTf+pBRiFBkA7GwPzRdkEyuWzwD/I8H3XQLkUeo9ZYUvJomu3+/fs7ouAf/Lm8YIwQUxt/tcgj7c2ePduZFs+fP79AHllDkEq0kn6fJgcz80Y24fGGf9RoujFX5UKAtWDF1hrfY1a8cuVK9wxa18cff7xwecPzpYjU8uXLnfzD2vIoGSTpo0ePHk4z+s8//0QGe0r6W7Hx8NtsCfJoF2jhd2CxNV21l2+DNiTy2KCC17TrAgGRx7oQoybhI6BNKfl64DA2d+5cZzYJAStHHi3gC+TGNB9GMvAx4uYewkPhUArJ4FCGJoyShjxOmzbNaY327NlT0IRVkzwaMUVjh0ml75eF5oUDsfk99uzZs0XJox3sw3IpNd/XXnvNkUeIPGM3DbDVMdnh04VmEG0j5AETVZNleAWZVhn5YYbpl507d7oLgs2bNzuNJLLFxxJyahqnYuQRYvfEE08431WIkZGepOQRM+KZM2e6NeZfftg4kSkaK3/8aTWPmP8y5t69ewf4VY4ePbpAHjHH5W98GvEfxezXL2EZYI4at4AZprgQevxVTZvv14csomVG64Z/IiaayAYtcFgLBzbgbxYE5X779n25PtCU8rsvpflL4vNoGlJkjNWDlWppHu1346/Dcn3ElZmea46A9mmtCiGQXwREHvMrO428CALalJIvDUgEh2nzYTTNTbFDvGlO8D/yzeCMKKIdgITu3bu34IfmP1cuSAcz8INThJ/HD4uD5/HHH99ksmk1j2iM0KxxyEa7BhHxD7gQZLRzkBxMD/G5JKiMEbSk2pRykrL5mHYp/HzUfBkv4yhGpJgD8jH/VMwqIY+YU0aZ99GnkVjfLJP6s2bNCtauXVsYFr53mEQSEAlcwuQx7PPIcxAhnuXCwUhUUvJouBPcBY1XuET571mdUjLwU6D4ZBOfUNYGhANtOpcKYGj42Pjbtm0bDB48OOC/4ZLEP9bqmrz5Gx8+/kbDaesPAs+40C5bICdMuzEh5rKFEpYxbaBF5+LATGt5rpgMkvRBFF9Sv4T9Oy1g1KJFi2L5B9saZN2GfaqrRR7tMgBTdS4jME83X1KZrZZ7UyX/Xvt0csxUQwhkBQGRx6xIQuOoGgLalJJDadE+MV3k4ARBAseoA6QfwCMcgCMcVRUyhgaMABdomMK+lF27dg0wNfRLVHAKGwfkliiwmAriB8jh0zdRTEseaQ9iCJEhCE8UGUSjw7whRsVKnIA5caR0++23O3JSTCOYhjxC+jiIQ8Dxh/v8889jk0cLEgMpuvTSSx1WEA+0mPjchX3dykXKJPjNnDlznAavFHHhuygtZhwiSF0/cih10ApGBVNBK4uJZjHySFv43HLRwO/llVdeiSSPpaLFmvyTrBXIKv6qUaTbcnWCD76LBJLq16+f81HlEidKC2gkDpPzcJTkqN9+0j6I9orvMEFrLIgRGks0+nxHiTt/LAG45AqT3GqRR8aCHypafghyVFG01ThvrXjPaJ+Oh5OeEgJZREDkMYtS0ZhSIaBNqTL4OOARbRByhNkjJn6Y13HoJPogvlsQDMxbiXbJoRs/snDiekxgITwQMA6KaB3Q4hmh8MlBpak6GAtBUYjw6kePTEMeMd1Dc0RAH2uzmCYRs1WIJppHNEAWbbQSbVIxaVkUVOQRPjBbnaj5ljNbtXZ/+OEHdxiH9KHRsYBG4Ui59GX+YBysIe48j4zxxUPz5ZckPo/guGLFCuerZ76ymIEm1Tya2SrBcXyTxlK/hErNVpkzmjqIIf/FJDWsmTWzVbSgUb6xlf1C/6sF6SNQEX6//D4xJTYMWJNo/Hxz5WI+j7YWiEbrB8oqRuAr6YN1hoaaCwcCTqEF5bKASwai/8Yhj6Yt37ZtWyEIk6FRTfJIm2ip8SFFbkZ4Id+888IRXdPKsZHra59uZOlr7nlHQOQx7xLU+JshoE2p8kURZZIWbg1TLkibEafw9xbkBZ8vzBRp0w+gUw3yaIdhzGdNS0i7lZJHDoVoQfEPg6jhr0cpRh4tgicHYT/aaDXNVksRqFLkMW7AHIK1mLYJbStaziji4Qd/gTCSAqKUL5sFryGvYjmfR+YRZcKYlDyGzaXDfp5Rv4hKySPrGgKJJgyNLSVMHm19osFkPUGWKimkcIHIQMBYZ76PbRijsIm135+ZmUOCfLNVC55kFyd+nSgZlFrfxfooNu8kvxULxoUJsO+TTdvVJI++VYVvaiuz1UpWb+k62qerj6laFAKthYDIY2shrX5aDQFtSumhxv8HrQDaSMgA5ogXX3yxu4nH39A3FQ33Zmk0MGHlsEokSvLdRR1MK9U80palQsDUEa0JmqtKySMmdIwV/yw/kmPUAXfDhg2OPKGVhUQMGzasMLUkB+JSUoJQgZnlCbRAQ+E6aVJ1+HkYfX8vkqTj72W/I/7mWTSSaJDJvWiaRwgUGmAjawTdwReUdeOb+JWKtooGChJGYBXMaIcMGZJY82htQP798YMX5BdihYkqQWamTp1auBjAbzPKzzMKV2SLphZTXbTTfu7DKJ9QS0GC+Sh+qFxOWIG0oeUm7Qbf2WVFWL4WKZY5ofWD5JGCxM+zaQFeZsyY4YIGkUsVH1lLVUIuQ/pijORxtPla22h+owhuFHk0zWPcPkqt8SS/FS43WIN+IC5ru5rk0XK4snYtLU0pgpr+Tdu4LWifblzZa+b5R0DkMf8y1AxCCGhTqt6SiKP9iurNAmVgthcVDTJNtFVLWWEpNfBTwp8Sc0U79HNgJ52GXyxoCtpCtGf4LRKt0tJUDB06tJBHz+qFD7h+InFIE+TJ13IlORAXk9LGjRsdgYWIEfQEDZ4RgXAdCCzElzkR3RJs8HGzfI7kH7SE55j+cSEAUYTggVX79u0LTULGMUsFpwEDBjhCwxiQFaaZEHQuDyho+iC0jM+eNT88THhJz4DWzYiKHfDDAXOoT7J7niWKLSSPwEoff/yxC6QTFd21GBGlHUgt+QDxsT3ppJOc5tvaR2uFqbHlpKxE8wjRY0372m7wiCKPaLGYz1NPPeVMmyGcXLpg0orPH4XLCjSLpTSlaJK5rIAYmxklmjjk0r1790JOR7vUAEvfv5Dcl5gCM24IEbJjTWDqyvpgDeBL3KZNm8jfCxdHw4cPd2uDtcZY4vTh54yMWutxfitE8sVMHpNqtLD8RgnS5RfzkeazkSNHOqsI/FXxz4QY87tYtmxZIXWQ/9v2Lw9KXQpJ81i9PcVa0j5dfUzVohBoLQREHitA2sxz2EDZgItpBWjaQvpzqGMzI3Q7mhsOrgSZCB8aLFJi1LD8W+MKht0wVbQpVU/UlZLHcvWqQR6ZpQVuIfolmiDIAaSuXDGtGM9BHjELNALq1/UPuASGMS0cv2FL2F7s+XKH52JjjBOJNqpuOJgH5BqSA2EgdQbvHswn8WuFaPN3uEBQCBIDccM/DX9WNLv33HOPI7FW0FpxQMc3lCBLFAgbwVFomzbQgoERmrFSAXMg+ciAIE28UwlEs337dvd+JJdkOM1FKS0mcsQ/k4TvEB0ijUIeIKZjx451JK4YefCxKKZ55P3M+551YMGfqBdFHv33Pxpb9g0uH8CUoE9oA1lHcUxsbV6kwWH+EDrIMGudwFFWkB8aSC4J6At5o0Vm7lgQoOGFsELCwDlOQB/a9tdW3D7C1gbhtRaHPJYLtBRukz2SvXbBggUBWEGS8bccMWJEs7XuXx4QIZgLFYg12lX++XIReSz3Rk3+vfbp5JiphhDICgIijxVIgoMFhyPMt9iciiV55qafQxc39pgncSNPYWPHzMqPamnDsOiKUdoGbojpt2/fvhWMunGqaFOqvazNlwoNWqnLlVqMlEMj2j3zx6vFGEr1WYpYR9Uz/zrMhLM6p6xh3OjjsTWGptY3047CpZa/FyNt7HlmcVBMduzL7LXF0s00usyzNn/t01mTiMYjBOIjIPIYHyv3pPlz4R/FDTImc+anE27KDtDcDGO6ZD4vFr4ckyoCiWBSRCEPFzf3pE2IMrNJONSGfVybUm1Fj8YLwogPm7++azuq/3qv5WE4DgYij3FQ0jNpEBB5TIOe6lYDAe3T1UBRbQiB2iAg8pgQd4skiN8HfiKEqccUiFvPsPkRN6U4+hOGHtMtv1jgAT9Mud2y4ptCZL127dolHJ0eBwFtSrVZB5h9sm7RhGHy6Adkqc2IonsVecySNDSWWiAg8lgL1NWnj4D2aa0HIZBfBEQeE8jOotPhx4MvEX4g+JOgMUyiYbGcVTjr+1rL9evXO5KJr1Q4HHmCYTb8o9qUarMECE5BsAoKfnWkfSgW6KU2I8xHr9I85kNOGqUQEAKVI6B9unLsVFMI1BoBkccEErBcU2gELT+aRZUsFzjHusEviYAOmLFecsklLkgHKQYoRDscNWpUMHHixIBkyAStIBohgSjQlhQLcpFgCg3xqDalhhCzJikEhIAQEAI5RUD7dE4Fp2ELgX8t/P7vf3ma9wmQMghYJFSiCE6bNs09bX6NJ5xwQtHAOTwXjhoHGSTMvx8q30xZiRBooeYxASTUOiQSrQ51pM0pLShtSvopCwEhIASEgBDILgLap7MrG41MCJRDQJrHcgj9+z1BQPBvJD+Xn7fOPl+9enVkAmNrnvDmRIKjYJ5KMBFyZ6GxJBQ9KT2IekfeLbSZlqSb5y3xNmHso9IJxJxCwzymTalhRK2JCgEhIASEQA4R0D6dQ6FpyELgXwREHmMuBdMwkjeLfHIdOnQo1CQoDik20AxC7vz8X1HNkzya/FyPPfZYZM6wqDrkakNbOWbMmAANaJzcYDGnVnePaVOqO5FqQkJACAgBIVBHCGifriNhaioNh4DIY0yRm0lpqcdJdv3888+7xMzlytdffx2MHj3a5YqMk5ajXNL1cv010vfalBpJ2pqrEBACQkAI5A0B7dN5k5jGKwT+Q0DkMcZqIMgNGr+tW7cGQ4cODQ444IBmtTZt2hSsW7cu8P0hSzX922+/uRQfBMaxxN6Yru7evTvo3LlzM82ikUdyRiqNR2mhaVOKsaj1iBAQAkJACAiBGiGgfbpGwKtbIVAFBEQeY4BoJqNoCouZpVr+x+OOO86l7YAATp482UVMxa9xyJAhTXr65JNPgquuuiro2bNnQPs7d+50mkhMXom6yud+MdNY2lQaD5HHGAOX5BoAAA3hSURBVMtWjwgBISAEhIAQyCQCIo+ZFIsGJQRiISDyWAYmcjLedtttwdKlS4OFCxcGV199dWSNXbt2Bddcc02wdu3awnM8j2/jhRdeGCxatCjo1KmTq8uzEyZMcKTx4YcfdoFy/H6mTp3qiOd+++3nnsff8uabb3b/j7/l6aefHku4jfqQNqVGlbzmLQSyi4BZj7APYG0yZ84c57/Ou529QkUINBIC2qcbSdqaa70hIPJYRqKmITz00EOdRvHII48sWgONIGSRSKnkcfz7778dCcTMFH/IM88809Vds2ZN8P333wc33HBDMHfu3AKp/Pbbb91n77//vnuWdB2YzKK9xDdy9uzZ7nsFyyktNG1K9faa0nyEQP4REHnMvww1g+ohoH26eliqJSHQ2giIPJZB3AhhHHNRI5o0aYFzSOXxwgsvBIsXLw6++OIL1xukkLQfkMxwzsZffvklmD9/fvDqq68GpOY4/PDDg8GDB7uorEY+W3uR5K0/bUp5k5jGKwTqH4EwecTqBHcEaR7rX/aaYXMEtE9rVQiB/CIg8phf2WnkRRDQpqSlIQSEQNYQIODaFVdcEbRr185dKPJv4sSJBdeFrI1X4xECLYmA9umWRFdtC4GWRUDksWXxVes1QECbUg1AV5etisCPP/4YXH755cFHH31UtN/TTjutEMnZHvrss8+cnx0BvmjjmGOOCS677LLgrrvuCg455JBCW9Z+3759nc/3rFmzgrfeest9f/bZZwd33HFHcO655zYzocfSYsmSJc6fG0sL/Lb79+8fTJo0KbjggguaPE90aYKDYZWB1QZ/E3AMv3IsMw466KDCeExrd/755zfzD7Sx8rBFrraKn376qQsw9uGHHwa4BRx88MFF+/j999+D66+/3ll9FCu9evUKnn322WDAgAGFR+L2YRG227Zt61wZcEcgaNrTTz/tZKAiBBoJAe3TjSRtzbXeEBB5rDeJaj7ugLpv3z4hIQTqFgEjTH/99VdwzjnnBG3atCnMFV9riN5hhx3WhExBijC/3759uyM/ffr0Cb788ssAYmYpgCCTFGu/a9euwR9//BH8/PPPwaBBg5wf94oVK9wz06dPD+68884CISQQ2Lhx41yf5uNNILBVq1YFf/75Z0CuXEgkv0/aJFAYgcSOPvpo1zaRptevXx9AcCHGfpCxSsjjiy++6Egu5bzzznO+5YyRAGTMj+8eeugh1y/FyCM+5xdddFETMs33ENBff/21CXlM0gfvJExU6Y8I3BB/3BHmzZvXhIzW7aLVxISAh4D2aS0HIZBfBEQe8ys7jbwIAtqUtDTqHQEjdwTwIgJzhw4dClOO0sQRoOvaa68NvvvuuyaBtyA0jzzySHDfffcFI0eODJ588kmn8fM1m3yOb1737t1dHxb9GcL6zDPPOB9uyv333+8IJQQSbV/79u3d55Cxm266yfl3o7U78cQTg0cffdSRSbSRaEIhqRSfVBJ87MEHH3RkMyl5tNy8O3bscJpNtKVWtmzZ4nLsQryJon3sscc2IY+Q17B2kQduueWW4J133il8V0kf9b4uNT8hEBcB7dNxkdJzQiB7CIg8Zk8mGlFKBLQppQRQ1TOPQFLyaHlib7zxxma5ajE1xUz0gw8+cGRw4MCBBfKIltI+80Exomiphgj0RQAw8tVCyDA/9cuMGTOC5cuXO8J41llnuWeZQxRJ++abb4IxY8Y4M1Yjd0nJ48qVK4MpU6a4IGPM3Y9QbRrGMEks9rnNI0weK+kj8wtLAxQCrYSA9ulWAlrdCIEWQEDksQVAVZO1RUCbUm3xV+8tj0AS8oj56vjx452GEjPLK6+8stkA0fDdfffdTiOIKaq1f8QRRzifvI4dOzaps3r1aqfJxAcRbeXGjRtdnlszfyUoTLGCuSZ+jZi2RrVt5p2kRiJq9YgRIxJrHv2+IYU//fSTM4fFPxHzU3wsu3Tp0oS8JiWPlfTR8itDPQiBfCCgfTofctIohUAUAiKPWhd1h4A2pboTqSYUQiAJecR8lEAwmJsOGzYs6Ny5czM8t23bFixbtqyQNsLaxyQVs9JwblnTBGKCCil99913nZ9inLQTb775piOeBImJapvBoaGcOXOmI5c8a/1hdlushAMEbd682QUCYt74XFIImINf5549e9zfvuazEvKYtA8tZCEgBP6HgPZprQQhkF8ERB7zKzuNvAgC2pS0NOodgUrIY6koooaXkT8/2urChQubwdla5NE0pdYfvpFEb/VLVICgTZs2OdLJPCCp+Fb269cv6NatW7B3715HptOarVbSR72vS81PCMRFQPt0XKT0nBDIHgIij9mTiUaUEgFtSikBVPXMI5CEPJrZ6tq1a53/Ij6H5Uqp9qlr2sPhw4c7s1VMUSFraCpJQ5HGbJUIrZjZvvzyyxWbrZrm8t5773WBfFrC57GSPsrhru+FQKMgoH26USStedYjAiKP9SjVBp+TNqUGXwANMP0k5PGoo45y0U+JXkqKCNJDlCvWPuad+B2eeuqpTapYwBy0kmgrLfLo7t27IwPmQFqpQ9AZguHECZiDRpG+Tz755MQ+j/SDSSxpQ8I5FPF3JL8iGsg0ZquV9FEOd30vBBoFAe3TjSJpzbMeERB5rEepNvictCk1+AJogOknJY/kc4QwkZ4CUkVEVSvkLoQAoj2cPXu2C3zjp+oIp96wVB34TkIKydNIkBvSffAPckoAHlJ+ULZu3epSdRBF1SK3xknV4edhTBpt1bSCt956qwsCRJoQis2VyK+9evVKRR4r6aMBlqamKARiIaB9OhZMekgIZBIBkcdMikWDSoOANqU06KluHhBISh6Z00svvRRMnjzZ5VI844wzXH7DXbt2uYAytDdq1KhgwYIFQadOnQrkEbKFho7PMHclJcd7773ncjjOnTu3SeRW2oJoou0jkA7PY4K6Zs2agHyLkK1JkyY5E1I/nyPkc9CgQcH+++8frF+/3vkihnNLJiWPGzZscH6NX331lUvXgTktAXFWrVoV9O7dO+jRo0fw3HPPubEOHTrUzRsfxhUrVrg0IwQPIoemX8KpOpL0EdZ+5mGNaYxCoCUR0D7dkuiqbSHQsgiIPLYsvmq9BghoU6oB6OqyVRGohDwyQFJVYMK6bt06RxA7dOjgTFLRNpLCw7SFfvuk7kB7Bwk88MADg8GDBzsTWNJyhAs5I5csWeIisGIeSvsEuEEDCCH0fQ/J4wihXbx4sXuWvyFupPEg76SNhT6SkkebK/klGTfEkXliLjt27Njg9ddfD6677rpg+vTpwcSJEx3RJKAQpHfWrFkuPUi4hMljkj7QyKoIASHwHwLap7UahEB+ERB5zK/sNPIiCGhT0tIQAukQKBcwJ13rqi0EhECjI6B9utFXgOafZwREHvMsPY09EgFtSloYQiAdAiKP6fBTbSEgBEojoH1aK0QI5BcBkcf8yk4jl+ZRa0AItAgCIo8tAqsaFQJC4F8ERB61FIRAfhEQecyv7DRykUetASHQIgiIPLYIrGpUCAgBkUetASGQewREHnMvQk0gjIBuNLUmhIAQEAJCQAhkFwHt09mVjUYmBMohIPJYDiF9nzsEtCnlTmQasBAQAkJACDQQAtqnG0jYmmrdISDyWHci1YS0KWkNCAEhIASEgBDILgLap7MrG41MCJRDQOSxHEL6PncIaFPKncg0YCEgBISAEGggBLRPN5CwNdW6Q0Dkse5EqglpU9IaEAJCQAgIASGQXQS0T2dXNhqZECiHgMhjOYT0fe4Q0KaUO5FpwEJACAgBIdBACGifbiBhZ3CqrD+VdAiA4L59+/ala0W1hUBGENCmlBFBaBhCQAgIASEgBCIQ0D6tZVFLBLT+0qEvzWM6/FQ7gwjopZBBoWhIQkAICAEhIAT+RUD7tJZCLRHQ+kuHvshjOvxUO4MI6KWQQaFoSEJACAgBISAERB61BjKAgM6J6YQg8pgOP9XOIAJ6KWRQKBqSEBACQkAICAGRR62BDCCgc2I6IYg8psNPtTOIgF4KGRSKhiQEhIAQEAJCQORRayADCOicmE4IIo/p8FPtDCKgl0IGhaIhCQEhIASEgBAQedQayAACOiemE4LIYzr8VDuDCOilkEGhaEhCQAgIASEgBEQetQYygIDOiemEIPKYDj/VziACeilkUCgakhAQAkJACAgBkUetgQwgoHNiOiGIPKbDT7UziIBeChkUioYkBISAEBACQkDkUWsgAwjonJhOCCKP6fBT7QwioJdCBoWiIQkBISAEhIAQEHnUGsgAAjonphOCyGM6/FQ7gwjopZBBoWhIQkAICAEhIAREHrUGMoCAzonphCDymA4/1c4gAnopZFAoGpIQEAJCQAgIAZFHrYEMIKBzYjohiDymw0+1M4iAXgoZFIqGJASEgBAQAkJA5FFrIAMI6JyYTggij+nwU+0MIqCXQgaFoiEJASEgBISAEBB51BrIAAI6J6YTgshjOvxUO4MI6KWQQaFoSEJACAgBISAERB61BjKAgM6J6YQg8pgOP9XOIAJ6KWRQKBqSEBACQkAICAGRR62BDCCgc2I6IYg8psNPtTOIgF4KGRSKhiQEhIAQEAJCQORRayADCOicmE4IIo/p8FPtDCKgl0IGhaIhCQEhIASEgBAQedQayAACOiemE4LIYzr8VDuDCOilkEGhaEhCQAgIASEgBEQetQYygIDOiemEUCCP6ZpRbSEgBISAEBACQkAICAEhIASEgBCodwT+H2MGoLJhRy1pAAAAAElFTkSuQmCC;" vertex="1" parent="1">
          <mxGeometry x="120" y="590" width="846.22" height="690" as="geometry" />
        </mxCell>
        <mxCell id="4jrtj_xi7a7eZWBBwE5j-2" style="edgeStyle=orthogonalEdgeStyle;rounded=0;orthogonalLoop=1;jettySize=auto;html=1;entryX=0;entryY=0.5;entryDx=0;entryDy=0;" parent="1" target="MUi1yYkGbGkddvzHHs3n-1" edge="1">
          <mxGeometry relative="1" as="geometry">
            <mxPoint x="130" y="800" as="sourcePoint" />
            <Array as="points">
              <mxPoint x="160" y="800" />
              <mxPoint x="160" y="800" />
            </Array>
          </mxGeometry>
        </mxCell>
        <mxCell id="4jrtj_xi7a7eZWBBwE5j-3" style="edgeStyle=orthogonalEdgeStyle;rounded=0;orthogonalLoop=1;jettySize=auto;html=1;exitX=0.75;exitY=1;exitDx=0;exitDy=0;entryX=0.75;entryY=1;entryDx=0;entryDy=0;" parent="1" target="MUi1yYkGbGkddvzHHs3n-1" edge="1">
          <mxGeometry relative="1" as="geometry">
            <mxPoint x="280" y="870" as="sourcePoint" />
            <Array as="points">
              <mxPoint x="405" y="870" />
            </Array>
          </mxGeometry>
        </mxCell>
        <mxCell id="4jrtj_xi7a7eZWBBwE5j-6" style="edgeStyle=orthogonalEdgeStyle;rounded=0;orthogonalLoop=1;jettySize=auto;html=1;exitX=1;exitY=0.5;exitDx=0;exitDy=0;entryX=0;entryY=0.25;entryDx=0;entryDy=0;" parent="1" source="MUi1yYkGbGkddvzHHs3n-1" target="4jrtj_xi7a7eZWBBwE5j-5" edge="1">
          <mxGeometry relative="1" as="geometry">
            <Array as="points">
              <mxPoint x="590" y="800" />
              <mxPoint x="590" y="870" />
              <mxPoint x="440" y="870" />
              <mxPoint x="440" y="905" />
            </Array>
          </mxGeometry>
        </mxCell>
        <mxCell id="MUi1yYkGbGkddvzHHs3n-1" value="&lt;span style=&quot;font-size: 14px;&quot;&gt;&lt;br&gt;&lt;br&gt;Формирование задачи&lt;/span&gt;" style="html=1;align=center;verticalAlign=top;rounded=1;absoluteArcSize=1;arcSize=10;dashed=0;whiteSpace=wrap;" parent="1" vertex="1">
          <mxGeometry x="270" y="750" width="180" height="100" as="geometry" />
        </mxCell>
        <mxCell id="tuSf0BVARLKbpVUZxoqx-10" value="&lt;font style=&quot;font-size: 11px;&quot;&gt;Идентификатор&lt;br style=&quot;font-size: 11px;&quot;&gt;администратора&lt;br style=&quot;font-size: 11px;&quot;&gt;&lt;/font&gt;" style="text;html=1;strokeColor=none;fillColor=none;align=center;verticalAlign=middle;whiteSpace=wrap;rounded=0;fontSize=11;" parent="1" vertex="1">
          <mxGeometry x="170" y="785" width="60" height="30" as="geometry" />
        </mxCell>
        <mxCell id="4jrtj_xi7a7eZWBBwE5j-4" value="&lt;font style=&quot;font-size: 11px;&quot;&gt;Администратор&lt;br style=&quot;font-size: 11px;&quot;&gt;&lt;/font&gt;" style="text;html=1;strokeColor=none;fillColor=none;align=center;verticalAlign=middle;whiteSpace=wrap;rounded=0;fontSize=11;" parent="1" vertex="1">
          <mxGeometry x="310" y="860" width="60" height="10" as="geometry" />
        </mxCell>
        <mxCell id="4jrtj_xi7a7eZWBBwE5j-9" style="edgeStyle=orthogonalEdgeStyle;rounded=0;orthogonalLoop=1;jettySize=auto;html=1;exitX=0.75;exitY=1;exitDx=0;exitDy=0;entryX=0.75;entryY=1;entryDx=0;entryDy=0;" parent="1" target="4jrtj_xi7a7eZWBBwE5j-5" edge="1">
          <mxGeometry relative="1" as="geometry">
            <mxPoint x="499.9999999999998" y="1000" as="sourcePoint" />
            <Array as="points">
              <mxPoint x="595" y="1000" />
            </Array>
          </mxGeometry>
        </mxCell>
        <mxCell id="4jrtj_xi7a7eZWBBwE5j-12" style="edgeStyle=orthogonalEdgeStyle;rounded=0;orthogonalLoop=1;jettySize=auto;html=1;exitX=1;exitY=0.5;exitDx=0;exitDy=0;entryX=0;entryY=0.5;entryDx=0;entryDy=0;" parent="1" source="4jrtj_xi7a7eZWBBwE5j-5" target="4jrtj_xi7a7eZWBBwE5j-11" edge="1">
          <mxGeometry relative="1" as="geometry">
            <Array as="points">
              <mxPoint x="760" y="930" />
              <mxPoint x="760" y="990" />
              <mxPoint x="640" y="990" />
              <mxPoint x="640" y="1050" />
            </Array>
          </mxGeometry>
        </mxCell>
        <mxCell id="4jrtj_xi7a7eZWBBwE5j-5" value="&lt;span style=&quot;font-size: 14px;&quot;&gt;&lt;br&gt;&lt;br&gt;Сохранение задачи в базе данных&lt;/span&gt;" style="html=1;align=center;verticalAlign=top;rounded=1;absoluteArcSize=1;arcSize=10;dashed=0;whiteSpace=wrap;" parent="1" vertex="1">
          <mxGeometry x="460" y="880" width="180" height="100" as="geometry" />
        </mxCell>
        <mxCell id="4jrtj_xi7a7eZWBBwE5j-7" value="&lt;font style=&quot;font-size: 11px;&quot;&gt;Информация о задаче&lt;br style=&quot;font-size: 11px;&quot;&gt;&lt;/font&gt;" style="text;html=1;strokeColor=none;fillColor=none;align=center;verticalAlign=middle;whiteSpace=wrap;rounded=0;fontSize=11;" parent="1" vertex="1">
          <mxGeometry x="460" y="785" width="120" height="10" as="geometry" />
        </mxCell>
        <mxCell id="4jrtj_xi7a7eZWBBwE5j-10" value="&lt;font style=&quot;font-size: 11px;&quot;&gt;Система&lt;br style=&quot;font-size: 11px;&quot;&gt;&lt;/font&gt;" style="text;html=1;strokeColor=none;fillColor=none;align=center;verticalAlign=middle;whiteSpace=wrap;rounded=0;fontSize=11;" parent="1" vertex="1">
          <mxGeometry x="520" y="990" width="60" height="10" as="geometry" />
        </mxCell>
        <mxCell id="4jrtj_xi7a7eZWBBwE5j-15" style="edgeStyle=orthogonalEdgeStyle;rounded=0;orthogonalLoop=1;jettySize=auto;html=1;entryX=0.75;entryY=1;entryDx=0;entryDy=0;" parent="1" target="4jrtj_xi7a7eZWBBwE5j-11" edge="1">
          <mxGeometry relative="1" as="geometry">
            <mxPoint x="681" y="1120" as="sourcePoint" />
            <Array as="points">
              <mxPoint x="795" y="1120" />
            </Array>
          </mxGeometry>
        </mxCell>
        <mxCell id="4jrtj_xi7a7eZWBBwE5j-16" style="edgeStyle=orthogonalEdgeStyle;rounded=0;orthogonalLoop=1;jettySize=auto;html=1;exitX=1;exitY=0.25;exitDx=0;exitDy=0;" parent="1" source="4jrtj_xi7a7eZWBBwE5j-11" edge="1">
          <mxGeometry relative="1" as="geometry">
            <mxPoint x="940" y="1025.3333333333333" as="targetPoint" />
          </mxGeometry>
        </mxCell>
        <mxCell id="4jrtj_xi7a7eZWBBwE5j-17" style="edgeStyle=orthogonalEdgeStyle;rounded=0;orthogonalLoop=1;jettySize=auto;html=1;exitX=1;exitY=0.75;exitDx=0;exitDy=0;" parent="1" source="4jrtj_xi7a7eZWBBwE5j-11" edge="1">
          <mxGeometry relative="1" as="geometry">
            <mxPoint x="940" y="1075.3333333333333" as="targetPoint" />
          </mxGeometry>
        </mxCell>
        <mxCell id="4jrtj_xi7a7eZWBBwE5j-11" value="&lt;span style=&quot;font-size: 14px;&quot;&gt;&lt;br&gt;&lt;br&gt;Предоставление задач персоналу&lt;/span&gt;" style="html=1;align=center;verticalAlign=top;rounded=1;absoluteArcSize=1;arcSize=10;dashed=0;whiteSpace=wrap;" parent="1" vertex="1">
          <mxGeometry x="660" y="1000" width="180" height="100" as="geometry" />
        </mxCell>
        <mxCell id="4jrtj_xi7a7eZWBBwE5j-13" value="&lt;font style=&quot;font-size: 11px;&quot;&gt;Обновленный список задач&lt;br style=&quot;font-size: 11px;&quot;&gt;&lt;/font&gt;" style="text;html=1;strokeColor=none;fillColor=none;align=center;verticalAlign=middle;whiteSpace=wrap;rounded=0;fontSize=11;" parent="1" vertex="1">
          <mxGeometry x="640" y="925" width="120" height="10" as="geometry" />
        </mxCell>
        <mxCell id="4jrtj_xi7a7eZWBBwE5j-18" value="&lt;font style=&quot;font-size: 11px;&quot;&gt;Система&lt;br style=&quot;font-size: 11px;&quot;&gt;&lt;/font&gt;" style="text;html=1;strokeColor=none;fillColor=none;align=center;verticalAlign=middle;whiteSpace=wrap;rounded=0;fontSize=11;" parent="1" vertex="1">
          <mxGeometry x="710" y="1110" width="60" height="10" as="geometry" />
        </mxCell>
        <mxCell id="4jrtj_xi7a7eZWBBwE5j-19" value="&lt;font style=&quot;font-size: 11px;&quot;&gt;Задачи &lt;br&gt;горничных&lt;br style=&quot;font-size: 11px;&quot;&gt;&lt;/font&gt;" style="text;html=1;strokeColor=none;fillColor=none;align=center;verticalAlign=middle;whiteSpace=wrap;rounded=0;fontSize=11;" parent="1" vertex="1">
          <mxGeometry x="830" y="1020" width="120" height="10" as="geometry" />
        </mxCell>
        <mxCell id="4jrtj_xi7a7eZWBBwE5j-20" value="&lt;font style=&quot;font-size: 11px;&quot;&gt;Задачи &lt;br&gt;поваров&lt;br style=&quot;font-size: 11px;&quot;&gt;&lt;/font&gt;" style="text;html=1;strokeColor=none;fillColor=none;align=center;verticalAlign=middle;whiteSpace=wrap;rounded=0;fontSize=11;" parent="1" vertex="1">
          <mxGeometry x="830" y="1070" width="120" height="10" as="geometry" />
        </mxCell>
        <mxCell id="hRrDJk90OYjO8OlJONK0-1" value="351" style="text;html=1;strokeColor=none;fillColor=none;align=center;verticalAlign=middle;whiteSpace=wrap;rounded=0;" vertex="1" parent="1">
          <mxGeometry x="400" y="830" width="60" height="30" as="geometry" />
        </mxCell>
        <mxCell id="hRrDJk90OYjO8OlJONK0-2" value="352" style="text;html=1;strokeColor=none;fillColor=none;align=center;verticalAlign=middle;whiteSpace=wrap;rounded=0;" vertex="1" parent="1">
          <mxGeometry x="590" y="960" width="60" height="30" as="geometry" />
        </mxCell>
        <mxCell id="hRrDJk90OYjO8OlJONK0-3" value="353" style="text;html=1;strokeColor=none;fillColor=none;align=center;verticalAlign=middle;whiteSpace=wrap;rounded=0;" vertex="1" parent="1">
          <mxGeometry x="790" y="1080" width="60" height="30" as="geometry" />
        </mxCell>
      </root>
    </mxGraphModel>
  </diagram>
  <diagram id="30CSTh-y9SVbLgZfz-_A" name="Страница — 2">
    <mxGraphModel dx="5413" dy="2800" grid="1" gridSize="10" guides="1" tooltips="1" connect="1" arrows="1" fold="1" page="1" pageScale="1" pageWidth="3300" pageHeight="2339" math="0" shadow="0">
      <root>
        <mxCell id="0" />
        <mxCell id="1" parent="0" />
      </root>
    </mxGraphModel>
  </diagram>
</mxfile>
